<mxfile host="65bd71144e">
    <diagram id="wxAlzM6GobpBu3EBlrAf" name="Dekomposisi berdasarkan role">
        <mxGraphModel dx="986" dy="821" grid="1" gridSize="10" guides="1" tooltips="1" connect="1" arrows="1" fold="1" page="1" pageScale="1" pageWidth="1600" pageHeight="900" math="0" shadow="0">
            <root>
                <mxCell id="0"/>
                <mxCell id="1" parent="0"/>
                <mxCell id="53" style="edgeStyle=orthogonalEdgeStyle;html=1;entryX=0.5;entryY=0;entryDx=0;entryDy=0;" parent="1" source="5" target="51" edge="1">
                    <mxGeometry relative="1" as="geometry"/>
                </mxCell>
                <mxCell id="5" value="BNMO" style="rounded=1;whiteSpace=wrap;html=1;" parent="1" vertex="1">
                    <mxGeometry x="580" y="15" width="120" height="60" as="geometry"/>
                </mxCell>
                <mxCell id="10" value="" style="edgeStyle=orthogonalEdgeStyle;html=1;" parent="1" source="6" target="9" edge="1">
                    <mxGeometry relative="1" as="geometry"/>
                </mxCell>
                <mxCell id="6" value="F03 - Log in" style="whiteSpace=wrap;html=1;rounded=0;" parent="1" vertex="1">
                    <mxGeometry x="580" y="195" width="120" height="60" as="geometry"/>
                </mxCell>
                <mxCell id="12" value="" style="edgeStyle=orthogonalEdgeStyle;html=1;" parent="1" source="9" target="11" edge="1">
                    <mxGeometry relative="1" as="geometry"/>
                </mxCell>
                <mxCell id="15" value="" style="edgeStyle=orthogonalEdgeStyle;html=1;entryX=0.5;entryY=0;entryDx=0;entryDy=0;" parent="1" source="9" target="32" edge="1">
                    <mxGeometry relative="1" as="geometry">
                        <mxPoint x="860" y="395" as="targetPoint"/>
                    </mxGeometry>
                </mxCell>
                <mxCell id="18" style="edgeStyle=orthogonalEdgeStyle;html=1;entryX=0.5;entryY=1;entryDx=0;entryDy=0;" parent="1" source="9" target="17" edge="1">
                    <mxGeometry relative="1" as="geometry">
                        <mxPoint x="390" y="345" as="targetPoint"/>
                    </mxGeometry>
                </mxCell>
                <mxCell id="20" style="edgeStyle=orthogonalEdgeStyle;html=1;exitX=0;exitY=0.5;exitDx=0;exitDy=0;entryX=0.5;entryY=0;entryDx=0;entryDy=0;" parent="1" source="9" target="19" edge="1">
                    <mxGeometry relative="1" as="geometry"/>
                </mxCell>
                <mxCell id="33" style="edgeStyle=orthogonalEdgeStyle;html=1;exitX=0;exitY=0.5;exitDx=0;exitDy=0;entryX=0;entryY=0.5;entryDx=0;entryDy=0;" parent="1" source="9" target="21" edge="1">
                    <mxGeometry relative="1" as="geometry">
                        <Array as="points">
                            <mxPoint x="530" y="325"/>
                            <mxPoint x="530" y="425"/>
                        </Array>
                    </mxGeometry>
                </mxCell>
                <mxCell id="34" style="edgeStyle=orthogonalEdgeStyle;html=1;exitX=1;exitY=0.5;exitDx=0;exitDy=0;entryX=1;entryY=0.5;entryDx=0;entryDy=0;" parent="1" source="9" target="21" edge="1">
                    <mxGeometry relative="1" as="geometry">
                        <Array as="points">
                            <mxPoint x="750" y="325"/>
                            <mxPoint x="750" y="425"/>
                        </Array>
                    </mxGeometry>
                </mxCell>
                <mxCell id="36" style="edgeStyle=orthogonalEdgeStyle;html=1;exitX=1;exitY=0.5;exitDx=0;exitDy=0;entryX=0.5;entryY=1;entryDx=0;entryDy=0;" parent="1" source="9" target="35" edge="1">
                    <mxGeometry relative="1" as="geometry"/>
                </mxCell>
                <mxCell id="38" style="edgeStyle=orthogonalEdgeStyle;html=1;exitX=1;exitY=0.5;exitDx=0;exitDy=0;entryX=0.5;entryY=0;entryDx=0;entryDy=0;" parent="1" source="9" target="37" edge="1">
                    <mxGeometry relative="1" as="geometry"/>
                </mxCell>
                <mxCell id="40" style="edgeStyle=orthogonalEdgeStyle;html=1;exitX=0;exitY=0.5;exitDx=0;exitDy=0;entryX=0;entryY=0.5;entryDx=0;entryDy=0;" parent="1" source="9" target="39" edge="1">
                    <mxGeometry relative="1" as="geometry">
                        <Array as="points">
                            <mxPoint x="530" y="325"/>
                            <mxPoint x="530" y="525"/>
                        </Array>
                    </mxGeometry>
                </mxCell>
                <mxCell id="41" style="edgeStyle=orthogonalEdgeStyle;html=1;exitX=1;exitY=0.5;exitDx=0;exitDy=0;entryX=1;entryY=0.5;entryDx=0;entryDy=0;" parent="1" source="9" target="39" edge="1">
                    <mxGeometry relative="1" as="geometry">
                        <Array as="points">
                            <mxPoint x="750" y="325"/>
                            <mxPoint x="750" y="525"/>
                        </Array>
                    </mxGeometry>
                </mxCell>
                <mxCell id="43" style="edgeStyle=orthogonalEdgeStyle;html=1;exitX=0;exitY=0.5;exitDx=0;exitDy=0;entryX=0.5;entryY=0;entryDx=0;entryDy=0;" parent="1" source="9" target="42" edge="1">
                    <mxGeometry relative="1" as="geometry"/>
                </mxCell>
                <mxCell id="46" style="edgeStyle=orthogonalEdgeStyle;html=1;entryX=0.5;entryY=1;entryDx=0;entryDy=0;exitX=0;exitY=0.5;exitDx=0;exitDy=0;" parent="1" source="9" target="45" edge="1">
                    <mxGeometry relative="1" as="geometry"/>
                </mxCell>
                <mxCell id="47" style="edgeStyle=orthogonalEdgeStyle;html=1;exitX=1;exitY=0.5;exitDx=0;exitDy=0;entryX=0.5;entryY=1;entryDx=0;entryDy=0;" parent="1" source="9" target="44" edge="1">
                    <mxGeometry relative="1" as="geometry"/>
                </mxCell>
                <mxCell id="49" style="edgeStyle=orthogonalEdgeStyle;html=1;exitX=1;exitY=0.5;exitDx=0;exitDy=0;entryX=1;entryY=0.5;entryDx=0;entryDy=0;" parent="1" source="9" target="48" edge="1">
                    <mxGeometry relative="1" as="geometry">
                        <Array as="points">
                            <mxPoint x="750" y="325"/>
                            <mxPoint x="750" y="620"/>
                        </Array>
                    </mxGeometry>
                </mxCell>
                <mxCell id="50" style="edgeStyle=none;html=1;exitX=0;exitY=0.5;exitDx=0;exitDy=0;entryX=0;entryY=0.5;entryDx=0;entryDy=0;" parent="1" source="9" target="48" edge="1">
                    <mxGeometry relative="1" as="geometry">
                        <Array as="points">
                            <mxPoint x="530" y="325"/>
                            <mxPoint x="530" y="620"/>
                        </Array>
                    </mxGeometry>
                </mxCell>
                <mxCell id="57" style="edgeStyle=orthogonalEdgeStyle;html=1;entryX=1;entryY=0.5;entryDx=0;entryDy=0;" parent="1" target="55" edge="1">
                    <mxGeometry relative="1" as="geometry">
                        <mxPoint x="750" y="415" as="sourcePoint"/>
                        <Array as="points">
                            <mxPoint x="750" y="695"/>
                        </Array>
                    </mxGeometry>
                </mxCell>
                <mxCell id="59" style="edgeStyle=orthogonalEdgeStyle;html=1;entryX=0;entryY=0.5;entryDx=0;entryDy=0;" parent="1" target="55" edge="1">
                    <mxGeometry relative="1" as="geometry">
                        <mxPoint x="530" y="415" as="sourcePoint"/>
                        <Array as="points">
                            <mxPoint x="530" y="695"/>
                        </Array>
                    </mxGeometry>
                </mxCell>
                <mxCell id="64" style="edgeStyle=none;html=1;exitX=1;exitY=0.5;exitDx=0;exitDy=0;entryX=1;entryY=0.5;entryDx=0;entryDy=0;" parent="1" source="9" target="60" edge="1">
                    <mxGeometry relative="1" as="geometry">
                        <Array as="points">
                            <mxPoint x="750" y="325"/>
                            <mxPoint x="750" y="765"/>
                        </Array>
                    </mxGeometry>
                </mxCell>
                <mxCell id="65" style="edgeStyle=none;html=1;exitX=0;exitY=0.5;exitDx=0;exitDy=0;entryX=0;entryY=0.5;entryDx=0;entryDy=0;" parent="1" source="9" target="60" edge="1">
                    <mxGeometry relative="1" as="geometry">
                        <Array as="points">
                            <mxPoint x="530" y="325"/>
                            <mxPoint x="530" y="765"/>
                        </Array>
                    </mxGeometry>
                </mxCell>
                <mxCell id="9" value="Siapa Penggunanya?" style="rhombus;whiteSpace=wrap;html=1;rounded=0;" parent="1" vertex="1">
                    <mxGeometry x="550" y="285" width="180" height="80" as="geometry"/>
                </mxCell>
                <mxCell id="11" value="F04 - Menambah Game ke Toko Game" style="whiteSpace=wrap;html=1;rounded=0;" parent="1" vertex="1">
                    <mxGeometry x="370" y="390" width="120" height="60" as="geometry"/>
                </mxCell>
                <mxCell id="13" value="Admin" style="text;html=1;align=center;verticalAlign=middle;resizable=0;points=[];autosize=1;strokeColor=none;fillColor=none;" parent="1" vertex="1">
                    <mxGeometry x="450" y="305" width="50" height="20" as="geometry"/>
                </mxCell>
                <mxCell id="16" value="User" style="text;html=1;align=center;verticalAlign=middle;resizable=0;points=[];autosize=1;strokeColor=none;fillColor=none;" parent="1" vertex="1">
                    <mxGeometry x="780" y="305" width="40" height="20" as="geometry"/>
                </mxCell>
                <mxCell id="17" value="F05 - Mengubah Game pada Toko Game" style="whiteSpace=wrap;html=1;rounded=0;" parent="1" vertex="1">
                    <mxGeometry x="150" y="225" width="120" height="60" as="geometry"/>
                </mxCell>
                <mxCell id="19" value="F06 - Mengubah Stok Game di Toko" style="whiteSpace=wrap;html=1;rounded=0;" parent="1" vertex="1">
                    <mxGeometry x="220" y="390" width="120" height="60" as="geometry"/>
                </mxCell>
                <mxCell id="21" value="F07 - Listing Game di Toko Berdasarkan ID, Tahun Rilis, dan Harga" style="whiteSpace=wrap;html=1;rounded=0;" parent="1" vertex="1">
                    <mxGeometry x="580" y="395" width="120" height="60" as="geometry"/>
                </mxCell>
                <mxCell id="32" value="F08 - Membeli Game" style="whiteSpace=wrap;html=1;rounded=0;" parent="1" vertex="1">
                    <mxGeometry x="780" y="395" width="120" height="60" as="geometry"/>
                </mxCell>
                <mxCell id="35" value="F09 - Melihat Game yang Dimiliki" style="whiteSpace=wrap;html=1;rounded=0;" parent="1" vertex="1">
                    <mxGeometry x="850" y="225" width="120" height="60" as="geometry"/>
                </mxCell>
                <mxCell id="37" value="F10 - Mencari Game yang Dimiliki dari ID dan Tahun Rilis" style="whiteSpace=wrap;html=1;rounded=0;" parent="1" vertex="1">
                    <mxGeometry x="950" y="395" width="120" height="60" as="geometry"/>
                </mxCell>
                <mxCell id="39" value="F11 - Mencari Game di Toko dari ID, Nama Game, Harga, Kategori, dan Tahun Rilis" style="whiteSpace=wrap;html=1;rounded=0;" parent="1" vertex="1">
                    <mxGeometry x="580" y="485" width="120" height="80" as="geometry"/>
                </mxCell>
                <mxCell id="42" value="F12 - Top Up Saldo" style="whiteSpace=wrap;html=1;rounded=0;" parent="1" vertex="1">
                    <mxGeometry x="70" y="390" width="120" height="60" as="geometry"/>
                </mxCell>
                <mxCell id="44" value="F13 - Melihat Riwayat Pembelian" style="whiteSpace=wrap;html=1;rounded=0;" parent="1" vertex="1">
                    <mxGeometry x="1030" y="225" width="120" height="60" as="geometry"/>
                </mxCell>
                <mxCell id="45" value="F02 - Register" style="whiteSpace=wrap;html=1;rounded=0;" parent="1" vertex="1">
                    <mxGeometry x="320" y="225" width="120" height="60" as="geometry"/>
                </mxCell>
                <mxCell id="48" value="F14 - Help" style="whiteSpace=wrap;html=1;rounded=0;" parent="1" vertex="1">
                    <mxGeometry x="580" y="595" width="120" height="50" as="geometry"/>
                </mxCell>
                <mxCell id="54" value="" style="edgeStyle=orthogonalEdgeStyle;html=1;" parent="1" source="51" target="6" edge="1">
                    <mxGeometry relative="1" as="geometry"/>
                </mxCell>
                <mxCell id="51" value="F15- Load" style="whiteSpace=wrap;html=1;rounded=0;" parent="1" vertex="1">
                    <mxGeometry x="580" y="105" width="120" height="60" as="geometry"/>
                </mxCell>
                <mxCell id="55" value="F16 - Save" style="whiteSpace=wrap;html=1;rounded=0;" parent="1" vertex="1">
                    <mxGeometry x="580" y="675" width="120" height="40" as="geometry"/>
                </mxCell>
                <mxCell id="63" style="edgeStyle=none;html=1;entryX=0.5;entryY=0;entryDx=0;entryDy=0;" parent="1" source="60" target="62" edge="1">
                    <mxGeometry relative="1" as="geometry"/>
                </mxCell>
                <mxCell id="60" value="F17 - Exit" style="whiteSpace=wrap;html=1;rounded=0;" parent="1" vertex="1">
                    <mxGeometry x="580" y="745" width="120" height="40" as="geometry"/>
                </mxCell>
                <mxCell id="62" value="Selesai" style="rounded=1;whiteSpace=wrap;html=1;" parent="1" vertex="1">
                    <mxGeometry x="580" y="825" width="120" height="60" as="geometry"/>
                </mxCell>
            </root>
        </mxGraphModel>
    </diagram>
    <diagram id="yZdyE0BTcisY-PstfGi8" name="F02">
        <mxGraphModel dx="690" dy="575" grid="1" gridSize="10" guides="1" tooltips="1" connect="1" arrows="1" fold="1" page="1" pageScale="1" pageWidth="1600" pageHeight="900" math="0" shadow="0">
            <root>
                <mxCell id="SBcsvIYYiJXPloKk3Q9L-0"/>
                <mxCell id="SBcsvIYYiJXPloKk3Q9L-1" parent="SBcsvIYYiJXPloKk3Q9L-0"/>
                <mxCell id="8g9Gn1TQnUZmlwp0aNMJ-9" style="edgeStyle=none;html=1;exitX=0.5;exitY=1;exitDx=0;exitDy=0;entryX=0.5;entryY=0;entryDx=0;entryDy=0;" parent="SBcsvIYYiJXPloKk3Q9L-1" source="8g9Gn1TQnUZmlwp0aNMJ-1" target="8g9Gn1TQnUZmlwp0aNMJ-4" edge="1">
                    <mxGeometry relative="1" as="geometry"/>
                </mxCell>
                <mxCell id="8g9Gn1TQnUZmlwp0aNMJ-1" value="F02 - Register" style="rounded=1;whiteSpace=wrap;html=1;" parent="SBcsvIYYiJXPloKk3Q9L-1" vertex="1">
                    <mxGeometry x="440" y="30" width="120" height="60" as="geometry"/>
                </mxCell>
                <mxCell id="8g9Gn1TQnUZmlwp0aNMJ-6" value="" style="edgeStyle=none;html=1;" parent="SBcsvIYYiJXPloKk3Q9L-1" source="8g9Gn1TQnUZmlwp0aNMJ-4" target="8g9Gn1TQnUZmlwp0aNMJ-5" edge="1">
                    <mxGeometry relative="1" as="geometry"/>
                </mxCell>
                <mxCell id="8g9Gn1TQnUZmlwp0aNMJ-4" value="input(nama)" style="shape=parallelogram;perimeter=parallelogramPerimeter;whiteSpace=wrap;html=1;fixedSize=1;" parent="SBcsvIYYiJXPloKk3Q9L-1" vertex="1">
                    <mxGeometry x="440" y="130" width="120" height="60" as="geometry"/>
                </mxCell>
                <mxCell id="8g9Gn1TQnUZmlwp0aNMJ-8" value="" style="edgeStyle=none;html=1;" parent="SBcsvIYYiJXPloKk3Q9L-1" source="8g9Gn1TQnUZmlwp0aNMJ-5" target="8g9Gn1TQnUZmlwp0aNMJ-7" edge="1">
                    <mxGeometry relative="1" as="geometry"/>
                </mxCell>
                <mxCell id="8g9Gn1TQnUZmlwp0aNMJ-5" value="input(username)" style="shape=parallelogram;perimeter=parallelogramPerimeter;whiteSpace=wrap;html=1;fixedSize=1;" parent="SBcsvIYYiJXPloKk3Q9L-1" vertex="1">
                    <mxGeometry x="440" y="230" width="120" height="60" as="geometry"/>
                </mxCell>
                <mxCell id="mcqiJNpLfXlirdxQEUCr-3" value="" style="edgeStyle=none;html=1;" parent="SBcsvIYYiJXPloKk3Q9L-1" source="8g9Gn1TQnUZmlwp0aNMJ-7" target="mcqiJNpLfXlirdxQEUCr-2" edge="1">
                    <mxGeometry relative="1" as="geometry"/>
                </mxCell>
                <mxCell id="8g9Gn1TQnUZmlwp0aNMJ-7" value="input(password)" style="shape=parallelogram;perimeter=parallelogramPerimeter;whiteSpace=wrap;html=1;fixedSize=1;" parent="SBcsvIYYiJXPloKk3Q9L-1" vertex="1">
                    <mxGeometry x="440" y="330" width="120" height="60" as="geometry"/>
                </mxCell>
                <mxCell id="mcqiJNpLfXlirdxQEUCr-5" value="" style="edgeStyle=none;html=1;" parent="SBcsvIYYiJXPloKk3Q9L-1" source="mcqiJNpLfXlirdxQEUCr-2" target="mcqiJNpLfXlirdxQEUCr-4" edge="1">
                    <mxGeometry relative="1" as="geometry"/>
                </mxCell>
                <mxCell id="mcqiJNpLfXlirdxQEUCr-9" style="edgeStyle=none;html=1;exitX=0;exitY=0.5;exitDx=0;exitDy=0;entryX=0;entryY=0.5;entryDx=0;entryDy=0;" parent="SBcsvIYYiJXPloKk3Q9L-1" source="mcqiJNpLfXlirdxQEUCr-2" target="8g9Gn1TQnUZmlwp0aNMJ-4" edge="1">
                    <mxGeometry relative="1" as="geometry">
                        <Array as="points">
                            <mxPoint x="310" y="480"/>
                            <mxPoint x="310" y="160"/>
                        </Array>
                    </mxGeometry>
                </mxCell>
                <mxCell id="mcqiJNpLfXlirdxQEUCr-2" value="Apakah username sudah terpakai?" style="rhombus;whiteSpace=wrap;html=1;" parent="SBcsvIYYiJXPloKk3Q9L-1" vertex="1">
                    <mxGeometry x="360" y="440" width="280" height="80" as="geometry"/>
                </mxCell>
                <mxCell id="mcqiJNpLfXlirdxQEUCr-8" style="edgeStyle=none;html=1;exitX=0.5;exitY=1;exitDx=0;exitDy=0;" parent="SBcsvIYYiJXPloKk3Q9L-1" source="mcqiJNpLfXlirdxQEUCr-4" target="mcqiJNpLfXlirdxQEUCr-7" edge="1">
                    <mxGeometry relative="1" as="geometry"/>
                </mxCell>
                <mxCell id="mcqiJNpLfXlirdxQEUCr-4" value="User terdaftar" style="whiteSpace=wrap;html=1;" parent="SBcsvIYYiJXPloKk3Q9L-1" vertex="1">
                    <mxGeometry x="440" y="610" width="120" height="60" as="geometry"/>
                </mxCell>
                <mxCell id="mcqiJNpLfXlirdxQEUCr-6" value="Belum" style="text;html=1;align=center;verticalAlign=middle;resizable=0;points=[];autosize=1;strokeColor=none;fillColor=none;" parent="SBcsvIYYiJXPloKk3Q9L-1" vertex="1">
                    <mxGeometry x="500" y="550" width="50" height="20" as="geometry"/>
                </mxCell>
                <mxCell id="mcqiJNpLfXlirdxQEUCr-7" value="Return" style="rounded=1;whiteSpace=wrap;html=1;" parent="SBcsvIYYiJXPloKk3Q9L-1" vertex="1">
                    <mxGeometry x="440" y="730" width="120" height="60" as="geometry"/>
                </mxCell>
                <mxCell id="mcqiJNpLfXlirdxQEUCr-10" value="Sudah" style="text;html=1;align=center;verticalAlign=middle;resizable=0;points=[];autosize=1;strokeColor=none;fillColor=none;" parent="SBcsvIYYiJXPloKk3Q9L-1" vertex="1">
                    <mxGeometry x="310" y="480" width="50" height="20" as="geometry"/>
                </mxCell>
                <mxCell id="lU1TFgiTM4GyYG775ACk-2" style="edgeStyle=orthogonalEdgeStyle;html=1;entryX=1;entryY=0.5;entryDx=0;entryDy=0;" parent="SBcsvIYYiJXPloKk3Q9L-1" source="lU1TFgiTM4GyYG775ACk-0" target="lU1TFgiTM4GyYG775ACk-1" edge="1">
                    <mxGeometry relative="1" as="geometry"/>
                </mxCell>
                <mxCell id="lU1TFgiTM4GyYG775ACk-6" value="" style="edgeStyle=orthogonalEdgeStyle;html=1;" parent="SBcsvIYYiJXPloKk3Q9L-1" source="lU1TFgiTM4GyYG775ACk-0" target="lU1TFgiTM4GyYG775ACk-5" edge="1">
                    <mxGeometry relative="1" as="geometry"/>
                </mxCell>
                <mxCell id="lU1TFgiTM4GyYG775ACk-0" value="F02 - Register" style="rounded=1;whiteSpace=wrap;html=1;" parent="SBcsvIYYiJXPloKk3Q9L-1" vertex="1">
                    <mxGeometry x="1120" y="170" width="120" height="60" as="geometry"/>
                </mxCell>
                <mxCell id="lU1TFgiTM4GyYG775ACk-4" value="" style="edgeStyle=orthogonalEdgeStyle;html=1;entryX=0;entryY=0.5;entryDx=0;entryDy=0;" parent="SBcsvIYYiJXPloKk3Q9L-1" source="lU1TFgiTM4GyYG775ACk-1" target="lU1TFgiTM4GyYG775ACk-3" edge="1">
                    <mxGeometry relative="1" as="geometry"/>
                </mxCell>
                <mxCell id="lU1TFgiTM4GyYG775ACk-1" value="pengecekan username unik (pada database)" style="rounded=1;whiteSpace=wrap;html=1;" parent="SBcsvIYYiJXPloKk3Q9L-1" vertex="1">
                    <mxGeometry x="930" y="320" width="120" height="60" as="geometry"/>
                </mxCell>
                <mxCell id="lU1TFgiTM4GyYG775ACk-3" value="search" style="whiteSpace=wrap;html=1;rounded=1;" parent="SBcsvIYYiJXPloKk3Q9L-1" vertex="1">
                    <mxGeometry x="1020" y="410" width="120" height="60" as="geometry"/>
                </mxCell>
                <mxCell id="lU1TFgiTM4GyYG775ACk-5" value="validasi username&lt;br&gt;(alphanumeric, _, -)" style="rounded=1;whiteSpace=wrap;html=1;" parent="SBcsvIYYiJXPloKk3Q9L-1" vertex="1">
                    <mxGeometry x="1220" y="320" width="120" height="60" as="geometry"/>
                </mxCell>
                <mxCell id="NXPgfJrpJmYdsDKCI20o-1" value="&lt;h1&gt;keterangan&lt;/h1&gt;&lt;div&gt;membutuhkan fungsi save untuk menyimpan penambahan akun pada csv&lt;/div&gt;" style="text;html=1;strokeColor=none;fillColor=none;spacing=5;spacingTop=-20;whiteSpace=wrap;overflow=hidden;rounded=0;" parent="SBcsvIYYiJXPloKk3Q9L-1" vertex="1">
                    <mxGeometry x="1300" y="160" width="190" height="120" as="geometry"/>
                </mxCell>
            </root>
        </mxGraphModel>
    </diagram>
    <diagram id="RIjMqtAqedvdz5oG-lGK" name="F03">
        <mxGraphModel dx="690" dy="575" grid="1" gridSize="10" guides="1" tooltips="1" connect="1" arrows="1" fold="1" page="1" pageScale="1" pageWidth="850" pageHeight="1100" math="0" shadow="0">
            <root>
                <mxCell id="_mG66kF83YpA8wfjYNvI-0"/>
                <mxCell id="_mG66kF83YpA8wfjYNvI-1" parent="_mG66kF83YpA8wfjYNvI-0"/>
                <mxCell id="1VjkJtBgiVSrmS8D9vO8-1" style="edgeStyle=none;html=1;exitX=0.5;exitY=1;exitDx=0;exitDy=0;entryX=0.5;entryY=0;entryDx=0;entryDy=0;" parent="_mG66kF83YpA8wfjYNvI-1" source="M2jdIo1DWa19AR5cvk7h-0" target="1VjkJtBgiVSrmS8D9vO8-0" edge="1">
                    <mxGeometry relative="1" as="geometry"/>
                </mxCell>
                <mxCell id="M2jdIo1DWa19AR5cvk7h-0" value="F03 - Log In" style="rounded=1;whiteSpace=wrap;html=1;" parent="_mG66kF83YpA8wfjYNvI-1" vertex="1">
                    <mxGeometry x="140" y="30" width="120" height="60" as="geometry"/>
                </mxCell>
                <mxCell id="1VjkJtBgiVSrmS8D9vO8-3" value="" style="edgeStyle=none;html=1;" parent="_mG66kF83YpA8wfjYNvI-1" source="1VjkJtBgiVSrmS8D9vO8-0" target="1VjkJtBgiVSrmS8D9vO8-2" edge="1">
                    <mxGeometry relative="1" as="geometry"/>
                </mxCell>
                <mxCell id="1VjkJtBgiVSrmS8D9vO8-0" value="input(username)" style="shape=parallelogram;perimeter=parallelogramPerimeter;whiteSpace=wrap;html=1;fixedSize=1;" parent="_mG66kF83YpA8wfjYNvI-1" vertex="1">
                    <mxGeometry x="140" y="140" width="120" height="60" as="geometry"/>
                </mxCell>
                <mxCell id="LLcb9atJtg5cmZ1z1O9j-1" value="" style="edgeStyle=none;html=1;" parent="_mG66kF83YpA8wfjYNvI-1" source="1VjkJtBgiVSrmS8D9vO8-2" target="LLcb9atJtg5cmZ1z1O9j-0" edge="1">
                    <mxGeometry relative="1" as="geometry"/>
                </mxCell>
                <mxCell id="1VjkJtBgiVSrmS8D9vO8-2" value="input(password)" style="shape=parallelogram;perimeter=parallelogramPerimeter;whiteSpace=wrap;html=1;fixedSize=1;" parent="_mG66kF83YpA8wfjYNvI-1" vertex="1">
                    <mxGeometry x="140" y="250" width="120" height="60" as="geometry"/>
                </mxCell>
                <mxCell id="m_KUURMWE24QnCMEDOF4-0" style="edgeStyle=orthogonalEdgeStyle;html=1;entryX=0.5;entryY=0;entryDx=0;entryDy=0;" parent="_mG66kF83YpA8wfjYNvI-1" source="m_KUURMWE24QnCMEDOF4-3" target="m_KUURMWE24QnCMEDOF4-4" edge="1">
                    <mxGeometry relative="1" as="geometry"/>
                </mxCell>
                <mxCell id="m_KUURMWE24QnCMEDOF4-1" style="edgeStyle=orthogonalEdgeStyle;html=1;" parent="_mG66kF83YpA8wfjYNvI-1" source="m_KUURMWE24QnCMEDOF4-3" target="m_KUURMWE24QnCMEDOF4-5" edge="1">
                    <mxGeometry relative="1" as="geometry"/>
                </mxCell>
                <mxCell id="m_KUURMWE24QnCMEDOF4-2" style="edgeStyle=orthogonalEdgeStyle;html=1;entryX=0.5;entryY=0;entryDx=0;entryDy=0;" parent="_mG66kF83YpA8wfjYNvI-1" source="m_KUURMWE24QnCMEDOF4-3" target="m_KUURMWE24QnCMEDOF4-6" edge="1">
                    <mxGeometry relative="1" as="geometry"/>
                </mxCell>
                <mxCell id="m_KUURMWE24QnCMEDOF4-3" value="F03 -log in" style="rounded=1;whiteSpace=wrap;html=1;" parent="_mG66kF83YpA8wfjYNvI-1" vertex="1">
                    <mxGeometry x="530" y="40" width="120" height="60" as="geometry"/>
                </mxCell>
                <mxCell id="m_KUURMWE24QnCMEDOF4-4" value="input username &amp;amp; password" style="rounded=0;whiteSpace=wrap;html=1;glass=0;" parent="_mG66kF83YpA8wfjYNvI-1" vertex="1">
                    <mxGeometry x="370" y="140" width="120" height="60" as="geometry"/>
                </mxCell>
                <mxCell id="m_KUURMWE24QnCMEDOF4-5" value="search username &amp;amp; password di database" style="rounded=0;whiteSpace=wrap;html=1;" parent="_mG66kF83YpA8wfjYNvI-1" vertex="1">
                    <mxGeometry x="530" y="140" width="120" height="60" as="geometry"/>
                </mxCell>
                <mxCell id="m_KUURMWE24QnCMEDOF4-6" value="masuk ke program" style="rounded=0;whiteSpace=wrap;html=1;" parent="_mG66kF83YpA8wfjYNvI-1" vertex="1">
                    <mxGeometry x="690" y="140" width="120" height="60" as="geometry"/>
                </mxCell>
                <mxCell id="LLcb9atJtg5cmZ1z1O9j-6" value="" style="edgeStyle=none;html=1;" parent="_mG66kF83YpA8wfjYNvI-1" source="LLcb9atJtg5cmZ1z1O9j-0" target="LLcb9atJtg5cmZ1z1O9j-5" edge="1">
                    <mxGeometry relative="1" as="geometry"/>
                </mxCell>
                <mxCell id="LLcb9atJtg5cmZ1z1O9j-0" value="Search Username dan Password di Database" style="whiteSpace=wrap;html=1;" parent="_mG66kF83YpA8wfjYNvI-1" vertex="1">
                    <mxGeometry x="140" y="360" width="120" height="60" as="geometry"/>
                </mxCell>
                <mxCell id="LLcb9atJtg5cmZ1z1O9j-7" style="edgeStyle=none;html=1;exitX=0;exitY=0.5;exitDx=0;exitDy=0;entryX=0;entryY=0.5;entryDx=0;entryDy=0;" parent="_mG66kF83YpA8wfjYNvI-1" source="LLcb9atJtg5cmZ1z1O9j-5" target="1VjkJtBgiVSrmS8D9vO8-0" edge="1">
                    <mxGeometry relative="1" as="geometry">
                        <Array as="points">
                            <mxPoint x="10" y="520"/>
                            <mxPoint x="10" y="170"/>
                        </Array>
                    </mxGeometry>
                </mxCell>
                <mxCell id="LLcb9atJtg5cmZ1z1O9j-10" style="edgeStyle=none;html=1;exitX=0.5;exitY=1;exitDx=0;exitDy=0;entryX=0.5;entryY=0;entryDx=0;entryDy=0;" parent="_mG66kF83YpA8wfjYNvI-1" source="LLcb9atJtg5cmZ1z1O9j-5" target="LLcb9atJtg5cmZ1z1O9j-9" edge="1">
                    <mxGeometry relative="1" as="geometry"/>
                </mxCell>
                <mxCell id="LLcb9atJtg5cmZ1z1O9j-5" value="Apakah username dan password benar?" style="rhombus;whiteSpace=wrap;html=1;" parent="_mG66kF83YpA8wfjYNvI-1" vertex="1">
                    <mxGeometry x="50" y="480" width="300" height="80" as="geometry"/>
                </mxCell>
                <mxCell id="LLcb9atJtg5cmZ1z1O9j-8" value="Salah" style="text;html=1;align=center;verticalAlign=middle;resizable=0;points=[];autosize=1;strokeColor=none;fillColor=none;" parent="_mG66kF83YpA8wfjYNvI-1" vertex="1">
                    <mxGeometry x="5" y="530" width="50" height="20" as="geometry"/>
                </mxCell>
                <mxCell id="LLcb9atJtg5cmZ1z1O9j-9" value="pembatasan akses diangkat;&lt;br&gt;&lt;br&gt;lanjut ke program utama" style="rounded=1;whiteSpace=wrap;html=1;glass=0;" parent="_mG66kF83YpA8wfjYNvI-1" vertex="1">
                    <mxGeometry x="130" y="620" width="140" height="110" as="geometry"/>
                </mxCell>
                <mxCell id="LLcb9atJtg5cmZ1z1O9j-11" value="Benar" style="text;html=1;align=center;verticalAlign=middle;resizable=0;points=[];autosize=1;strokeColor=none;fillColor=none;" parent="_mG66kF83YpA8wfjYNvI-1" vertex="1">
                    <mxGeometry x="200" y="580" width="50" height="20" as="geometry"/>
                </mxCell>
            </root>
        </mxGraphModel>
    </diagram>
    <diagram id="Xwd7mY2441P3FIpXFi3U" name="F04">
        <mxGraphModel dx="1165" dy="676" grid="1" gridSize="10" guides="1" tooltips="1" connect="1" arrows="1" fold="1" page="1" pageScale="1" pageWidth="827" pageHeight="1169" math="0" shadow="0">
            <root>
                <mxCell id="Swh0pJ4D5cBUGqY8b_GR-0"/>
                <mxCell id="Swh0pJ4D5cBUGqY8b_GR-1" parent="Swh0pJ4D5cBUGqY8b_GR-0"/>
                <mxCell id="Ime0kuvytx--Qfxrom7x-10" style="edgeStyle=none;html=1;exitX=0.5;exitY=1;exitDx=0;exitDy=0;entryX=0.5;entryY=0;entryDx=0;entryDy=0;" parent="Swh0pJ4D5cBUGqY8b_GR-1" source="Ime0kuvytx--Qfxrom7x-0" target="Ime0kuvytx--Qfxrom7x-1" edge="1">
                    <mxGeometry relative="1" as="geometry"/>
                </mxCell>
                <mxCell id="Ime0kuvytx--Qfxrom7x-0" value="F04 - Menambah Game ke Toko Game" style="rounded=1;whiteSpace=wrap;html=1;" parent="Swh0pJ4D5cBUGqY8b_GR-1" vertex="1">
                    <mxGeometry x="120" y="30" width="160" height="60" as="geometry"/>
                </mxCell>
                <mxCell id="Ime0kuvytx--Qfxrom7x-3" value="" style="edgeStyle=none;html=1;" parent="Swh0pJ4D5cBUGqY8b_GR-1" source="Ime0kuvytx--Qfxrom7x-1" target="Ime0kuvytx--Qfxrom7x-2" edge="1">
                    <mxGeometry relative="1" as="geometry"/>
                </mxCell>
                <mxCell id="Ime0kuvytx--Qfxrom7x-1" value="input(nama_game)" style="shape=parallelogram;perimeter=parallelogramPerimeter;whiteSpace=wrap;html=1;fixedSize=1;rounded=0;glass=0;" parent="Swh0pJ4D5cBUGqY8b_GR-1" vertex="1">
                    <mxGeometry x="120" y="140" width="160" height="60" as="geometry"/>
                </mxCell>
                <mxCell id="Ime0kuvytx--Qfxrom7x-5" value="" style="edgeStyle=none;html=1;" parent="Swh0pJ4D5cBUGqY8b_GR-1" source="Ime0kuvytx--Qfxrom7x-2" target="Ime0kuvytx--Qfxrom7x-4" edge="1">
                    <mxGeometry relative="1" as="geometry"/>
                </mxCell>
                <mxCell id="Ime0kuvytx--Qfxrom7x-2" value="input(kategori)" style="shape=parallelogram;perimeter=parallelogramPerimeter;whiteSpace=wrap;html=1;fixedSize=1;rounded=0;glass=0;" parent="Swh0pJ4D5cBUGqY8b_GR-1" vertex="1">
                    <mxGeometry x="120" y="240" width="160" height="60" as="geometry"/>
                </mxCell>
                <mxCell id="Ime0kuvytx--Qfxrom7x-7" value="" style="edgeStyle=none;html=1;" parent="Swh0pJ4D5cBUGqY8b_GR-1" source="Ime0kuvytx--Qfxrom7x-4" target="Ime0kuvytx--Qfxrom7x-6" edge="1">
                    <mxGeometry relative="1" as="geometry"/>
                </mxCell>
                <mxCell id="Ime0kuvytx--Qfxrom7x-4" value="input(tahun_rilis)" style="shape=parallelogram;perimeter=parallelogramPerimeter;whiteSpace=wrap;html=1;fixedSize=1;rounded=0;glass=0;" parent="Swh0pJ4D5cBUGqY8b_GR-1" vertex="1">
                    <mxGeometry x="120" y="340" width="160" height="60" as="geometry"/>
                </mxCell>
                <mxCell id="Ime0kuvytx--Qfxrom7x-9" value="" style="edgeStyle=none;html=1;" parent="Swh0pJ4D5cBUGqY8b_GR-1" source="Ime0kuvytx--Qfxrom7x-6" target="Ime0kuvytx--Qfxrom7x-8" edge="1">
                    <mxGeometry relative="1" as="geometry"/>
                </mxCell>
                <mxCell id="Ime0kuvytx--Qfxrom7x-6" value="input(harga)" style="shape=parallelogram;perimeter=parallelogramPerimeter;whiteSpace=wrap;html=1;fixedSize=1;rounded=0;glass=0;" parent="Swh0pJ4D5cBUGqY8b_GR-1" vertex="1">
                    <mxGeometry x="120" y="440" width="160" height="60" as="geometry"/>
                </mxCell>
                <mxCell id="Ime0kuvytx--Qfxrom7x-12" value="" style="edgeStyle=none;html=1;" parent="Swh0pJ4D5cBUGqY8b_GR-1" source="Ime0kuvytx--Qfxrom7x-8" target="Ime0kuvytx--Qfxrom7x-11" edge="1">
                    <mxGeometry relative="1" as="geometry"/>
                </mxCell>
                <mxCell id="Ime0kuvytx--Qfxrom7x-8" value="input(stok_awal)" style="shape=parallelogram;perimeter=parallelogramPerimeter;whiteSpace=wrap;html=1;fixedSize=1;rounded=0;glass=0;" parent="Swh0pJ4D5cBUGqY8b_GR-1" vertex="1">
                    <mxGeometry x="120" y="540" width="160" height="60" as="geometry"/>
                </mxCell>
                <mxCell id="Ime0kuvytx--Qfxrom7x-14" style="edgeStyle=none;html=1;exitX=0.5;exitY=1;exitDx=0;exitDy=0;entryX=0.5;entryY=0;entryDx=0;entryDy=0;" parent="Swh0pJ4D5cBUGqY8b_GR-1" source="Ime0kuvytx--Qfxrom7x-11" target="Ime0kuvytx--Qfxrom7x-13" edge="1">
                    <mxGeometry relative="1" as="geometry"/>
                </mxCell>
                <mxCell id="Ime0kuvytx--Qfxrom7x-16" style="edgeStyle=none;html=1;exitX=0;exitY=0.5;exitDx=0;exitDy=0;entryX=0;entryY=0.5;entryDx=0;entryDy=0;" parent="Swh0pJ4D5cBUGqY8b_GR-1" source="Ime0kuvytx--Qfxrom7x-11" target="Ime0kuvytx--Qfxrom7x-1" edge="1">
                    <mxGeometry relative="1" as="geometry">
                        <Array as="points">
                            <mxPoint x="40" y="710"/>
                            <mxPoint x="40" y="170"/>
                        </Array>
                    </mxGeometry>
                </mxCell>
                <mxCell id="Ime0kuvytx--Qfxrom7x-11" value="Apakah semua input valid?" style="rhombus;whiteSpace=wrap;html=1;rounded=0;glass=0;" parent="Swh0pJ4D5cBUGqY8b_GR-1" vertex="1">
                    <mxGeometry x="90" y="670" width="220" height="80" as="geometry"/>
                </mxCell>
                <mxCell id="Ime0kuvytx--Qfxrom7x-19" value="" style="edgeStyle=none;html=1;entryX=0.5;entryY=0;entryDx=0;entryDy=0;" parent="Swh0pJ4D5cBUGqY8b_GR-1" source="Ime0kuvytx--Qfxrom7x-13" target="Ime0kuvytx--Qfxrom7x-20" edge="1">
                    <mxGeometry relative="1" as="geometry">
                        <mxPoint x="200" y="960" as="targetPoint"/>
                    </mxGeometry>
                </mxCell>
                <mxCell id="Ime0kuvytx--Qfxrom7x-13" value="Simpan game ke game.csv" style="rounded=0;whiteSpace=wrap;html=1;glass=0;" parent="Swh0pJ4D5cBUGqY8b_GR-1" vertex="1">
                    <mxGeometry x="140" y="800" width="120" height="60" as="geometry"/>
                </mxCell>
                <mxCell id="Ime0kuvytx--Qfxrom7x-15" value="Ya" style="text;html=1;align=center;verticalAlign=middle;resizable=0;points=[];autosize=1;strokeColor=none;fillColor=none;" parent="Swh0pJ4D5cBUGqY8b_GR-1" vertex="1">
                    <mxGeometry x="200" y="770" width="30" height="20" as="geometry"/>
                </mxCell>
                <mxCell id="Ime0kuvytx--Qfxrom7x-17" value="Tidak" style="text;html=1;align=center;verticalAlign=middle;resizable=0;points=[];autosize=1;strokeColor=none;fillColor=none;" parent="Swh0pJ4D5cBUGqY8b_GR-1" vertex="1">
                    <mxGeometry x="50" y="710" width="40" height="20" as="geometry"/>
                </mxCell>
                <mxCell id="42_SX3Cnz8Bchhya1b8B-2" value="" style="edgeStyle=orthogonalEdgeStyle;html=1;" parent="Swh0pJ4D5cBUGqY8b_GR-1" source="42_SX3Cnz8Bchhya1b8B-0" target="42_SX3Cnz8Bchhya1b8B-1" edge="1">
                    <mxGeometry relative="1" as="geometry"/>
                </mxCell>
                <mxCell id="42_SX3Cnz8Bchhya1b8B-6" value="" style="edgeStyle=orthogonalEdgeStyle;html=1;" parent="Swh0pJ4D5cBUGqY8b_GR-1" source="42_SX3Cnz8Bchhya1b8B-0" target="42_SX3Cnz8Bchhya1b8B-5" edge="1">
                    <mxGeometry relative="1" as="geometry"/>
                </mxCell>
                <mxCell id="42_SX3Cnz8Bchhya1b8B-0" value="F04 - Menambah game" style="rounded=1;whiteSpace=wrap;html=1;" parent="Swh0pJ4D5cBUGqY8b_GR-1" vertex="1">
                    <mxGeometry x="520" y="100" width="200" height="60" as="geometry"/>
                </mxCell>
                <mxCell id="42_SX3Cnz8Bchhya1b8B-1" value="input atribut-atribut sebuah game" style="whiteSpace=wrap;html=1;rounded=1;" parent="Swh0pJ4D5cBUGqY8b_GR-1" vertex="1">
                    <mxGeometry x="414" y="230" width="120" height="60" as="geometry"/>
                </mxCell>
                <mxCell id="42_SX3Cnz8Bchhya1b8B-3" value="validasi apakah semua atribut telah terisi" style="whiteSpace=wrap;html=1;rounded=1;" parent="Swh0pJ4D5cBUGqY8b_GR-1" vertex="1">
                    <mxGeometry x="500" y="320" width="120" height="60" as="geometry"/>
                </mxCell>
                <mxCell id="42_SX3Cnz8Bchhya1b8B-4" value="" style="edgeStyle=orthogonalEdgeStyle;html=1;" parent="Swh0pJ4D5cBUGqY8b_GR-1" source="42_SX3Cnz8Bchhya1b8B-0" target="42_SX3Cnz8Bchhya1b8B-3" edge="1">
                    <mxGeometry relative="1" as="geometry"/>
                </mxCell>
                <mxCell id="42_SX3Cnz8Bchhya1b8B-5" value="menyimpan informasi pada penyimpanan sementara*" style="whiteSpace=wrap;html=1;rounded=1;" parent="Swh0pJ4D5cBUGqY8b_GR-1" vertex="1">
                    <mxGeometry x="640" y="230" width="120" height="60" as="geometry"/>
                </mxCell>
                <mxCell id="Ime0kuvytx--Qfxrom7x-20" value="Return" style="rounded=1;whiteSpace=wrap;html=1;glass=0;" parent="Swh0pJ4D5cBUGqY8b_GR-1" vertex="1">
                    <mxGeometry x="140" y="900" width="120" height="60" as="geometry"/>
                </mxCell>
                <mxCell id="Oli_cXNx4yLUfUB5rFSA-0" value="&lt;h1&gt;keterangan&lt;/h1&gt;&lt;div&gt;*membutuhkan fungsi save untuk menyimpan penambahan akun pada csv&lt;/div&gt;" style="text;html=1;strokeColor=none;fillColor=none;spacing=5;spacingTop=-20;whiteSpace=wrap;overflow=hidden;rounded=0;" parent="Swh0pJ4D5cBUGqY8b_GR-1" vertex="1">
                    <mxGeometry x="637" y="310" width="190" height="120" as="geometry"/>
                </mxCell>
            </root>
        </mxGraphModel>
    </diagram>
    <diagram id="n9Na3bkffQQknkfWHDF2" name="F05">
        <mxGraphModel dx="990" dy="575" grid="1" gridSize="10" guides="1" tooltips="1" connect="1" arrows="1" fold="1" page="1" pageScale="1" pageWidth="827" pageHeight="1169" math="0" shadow="0">
            <root>
                <mxCell id="XduCuKOVXgxRyF3U87lP-0"/>
                <mxCell id="XduCuKOVXgxRyF3U87lP-1" parent="XduCuKOVXgxRyF3U87lP-0"/>
                <mxCell id="VYXdRMvok-POJy8L4UyE-1" value="" style="edgeStyle=none;html=1;entryX=0.5;entryY=0;entryDx=0;entryDy=0;" parent="XduCuKOVXgxRyF3U87lP-1" source="KEWP7evqrpYr5Dj6bAx7-0" target="fdanCVwk_0mOSnyDtwQ1-0" edge="1">
                    <mxGeometry relative="1" as="geometry">
                        <mxPoint x="400" y="170" as="targetPoint"/>
                    </mxGeometry>
                </mxCell>
                <mxCell id="KEWP7evqrpYr5Dj6bAx7-0" value="F05 - Mengubah Game pada Toko Game" style="rounded=1;whiteSpace=wrap;html=1;" parent="XduCuKOVXgxRyF3U87lP-1" vertex="1">
                    <mxGeometry x="340" y="30" width="120" height="60" as="geometry"/>
                </mxCell>
                <mxCell id="1rD_Icp1PiyhJOa9nVuJ-3" value="" style="edgeStyle=none;html=1;" parent="XduCuKOVXgxRyF3U87lP-1" source="fdanCVwk_0mOSnyDtwQ1-0" target="1rD_Icp1PiyhJOa9nVuJ-2" edge="1">
                    <mxGeometry relative="1" as="geometry"/>
                </mxCell>
                <mxCell id="fdanCVwk_0mOSnyDtwQ1-0" value="input(id_game)" style="shape=parallelogram;perimeter=parallelogramPerimeter;whiteSpace=wrap;html=1;fixedSize=1;" parent="XduCuKOVXgxRyF3U87lP-1" vertex="1">
                    <mxGeometry x="340" y="120" width="120" height="60" as="geometry"/>
                </mxCell>
                <mxCell id="1rD_Icp1PiyhJOa9nVuJ-5" value="" style="edgeStyle=none;html=1;" parent="XduCuKOVXgxRyF3U87lP-1" source="1rD_Icp1PiyhJOa9nVuJ-2" target="1rD_Icp1PiyhJOa9nVuJ-4" edge="1">
                    <mxGeometry relative="1" as="geometry"/>
                </mxCell>
                <mxCell id="1rD_Icp1PiyhJOa9nVuJ-2" value="input(nama_&lt;br&gt;game)" style="shape=parallelogram;perimeter=parallelogramPerimeter;whiteSpace=wrap;html=1;fixedSize=1;" parent="XduCuKOVXgxRyF3U87lP-1" vertex="1">
                    <mxGeometry x="340" y="220" width="120" height="60" as="geometry"/>
                </mxCell>
                <mxCell id="1rD_Icp1PiyhJOa9nVuJ-7" value="" style="edgeStyle=none;html=1;" parent="XduCuKOVXgxRyF3U87lP-1" source="1rD_Icp1PiyhJOa9nVuJ-4" target="1rD_Icp1PiyhJOa9nVuJ-6" edge="1">
                    <mxGeometry relative="1" as="geometry"/>
                </mxCell>
                <mxCell id="1rD_Icp1PiyhJOa9nVuJ-4" value="input(kategori)" style="shape=parallelogram;perimeter=parallelogramPerimeter;whiteSpace=wrap;html=1;fixedSize=1;" parent="XduCuKOVXgxRyF3U87lP-1" vertex="1">
                    <mxGeometry x="340" y="320" width="120" height="60" as="geometry"/>
                </mxCell>
                <mxCell id="1rD_Icp1PiyhJOa9nVuJ-9" value="" style="edgeStyle=none;html=1;" parent="XduCuKOVXgxRyF3U87lP-1" source="1rD_Icp1PiyhJOa9nVuJ-6" target="1rD_Icp1PiyhJOa9nVuJ-8" edge="1">
                    <mxGeometry relative="1" as="geometry"/>
                </mxCell>
                <mxCell id="1rD_Icp1PiyhJOa9nVuJ-6" value="input(tahun_&lt;br&gt;rilis)" style="shape=parallelogram;perimeter=parallelogramPerimeter;whiteSpace=wrap;html=1;fixedSize=1;" parent="XduCuKOVXgxRyF3U87lP-1" vertex="1">
                    <mxGeometry x="340" y="420" width="120" height="60" as="geometry"/>
                </mxCell>
                <mxCell id="_iX4tVaKKpQ-W4tJCfeN-1" value="" style="edgeStyle=none;html=1;" parent="XduCuKOVXgxRyF3U87lP-1" source="1rD_Icp1PiyhJOa9nVuJ-8" edge="1">
                    <mxGeometry relative="1" as="geometry">
                        <mxPoint x="400" y="630" as="targetPoint"/>
                    </mxGeometry>
                </mxCell>
                <mxCell id="1rD_Icp1PiyhJOa9nVuJ-8" value="input(harga)" style="shape=parallelogram;perimeter=parallelogramPerimeter;whiteSpace=wrap;html=1;fixedSize=1;" parent="XduCuKOVXgxRyF3U87lP-1" vertex="1">
                    <mxGeometry x="340" y="525" width="120" height="60" as="geometry"/>
                </mxCell>
                <mxCell id="zAOlIrYktRWXHm2t3BO0-1" style="edgeStyle=none;html=1;exitX=0.5;exitY=1;exitDx=0;exitDy=0;entryX=0.5;entryY=0;entryDx=0;entryDy=0;" parent="XduCuKOVXgxRyF3U87lP-1" source="7l7A32Pp6b5ZUPv5po2C-0" target="zAOlIrYktRWXHm2t3BO0-0" edge="1">
                    <mxGeometry relative="1" as="geometry"/>
                </mxCell>
                <mxCell id="7l7A32Pp6b5ZUPv5po2C-0" value="Data di game.csv diperbaharui" style="rounded=0;whiteSpace=wrap;html=1;" parent="XduCuKOVXgxRyF3U87lP-1" vertex="1">
                    <mxGeometry x="340" y="630" width="120" height="60" as="geometry"/>
                </mxCell>
                <mxCell id="K2_1UzrzRX4f2BXz6mUh-2" value="&lt;h1&gt;NOTE&lt;/h1&gt;&lt;p&gt;&amp;nbsp;INI MAI KURANG BUAT DI DATA KL MAU DI SAVE DI CSV&lt;/p&gt;" style="text;html=1;strokeColor=none;fillColor=none;spacing=5;spacingTop=-20;whiteSpace=wrap;overflow=hidden;rounded=0;" parent="XduCuKOVXgxRyF3U87lP-1" vertex="1">
                    <mxGeometry x="70" y="750" width="190" height="120" as="geometry"/>
                </mxCell>
                <mxCell id="gXSYh6QorToQ10VSJgt4-3" value="" style="edgeStyle=orthogonalEdgeStyle;html=1;" parent="XduCuKOVXgxRyF3U87lP-1" source="gXSYh6QorToQ10VSJgt4-0" target="gXSYh6QorToQ10VSJgt4-2" edge="1">
                    <mxGeometry relative="1" as="geometry"/>
                </mxCell>
                <mxCell id="gXSYh6QorToQ10VSJgt4-5" value="" style="edgeStyle=orthogonalEdgeStyle;html=1;" parent="XduCuKOVXgxRyF3U87lP-1" source="gXSYh6QorToQ10VSJgt4-0" target="gXSYh6QorToQ10VSJgt4-4" edge="1">
                    <mxGeometry relative="1" as="geometry"/>
                </mxCell>
                <mxCell id="gXSYh6QorToQ10VSJgt4-7" value="" style="edgeStyle=orthogonalEdgeStyle;html=1;" parent="XduCuKOVXgxRyF3U87lP-1" source="gXSYh6QorToQ10VSJgt4-0" target="gXSYh6QorToQ10VSJgt4-6" edge="1">
                    <mxGeometry relative="1" as="geometry"/>
                </mxCell>
                <mxCell id="u_53YjSJL3kihmBI6AcN-2" value="" style="edgeStyle=orthogonalEdgeStyle;html=1;" parent="XduCuKOVXgxRyF3U87lP-1" source="gXSYh6QorToQ10VSJgt4-0" target="u_53YjSJL3kihmBI6AcN-1" edge="1">
                    <mxGeometry relative="1" as="geometry"/>
                </mxCell>
                <mxCell id="gXSYh6QorToQ10VSJgt4-0" value="F05 - mengubah game" style="rounded=1;whiteSpace=wrap;html=1;" parent="XduCuKOVXgxRyF3U87lP-1" vertex="1">
                    <mxGeometry x="1210" y="60" width="120" height="60" as="geometry"/>
                </mxCell>
                <mxCell id="gXSYh6QorToQ10VSJgt4-2" value="input ID game" style="whiteSpace=wrap;html=1;rounded=1;" parent="XduCuKOVXgxRyF3U87lP-1" vertex="1">
                    <mxGeometry x="940" y="220" width="120" height="60" as="geometry"/>
                </mxCell>
                <mxCell id="gXSYh6QorToQ10VSJgt4-4" value="search data pada database game berdasarkan ID" style="whiteSpace=wrap;html=1;rounded=1;" parent="XduCuKOVXgxRyF3U87lP-1" vertex="1">
                    <mxGeometry x="1090" y="260" width="120" height="60" as="geometry"/>
                </mxCell>
                <mxCell id="zAOlIrYktRWXHm2t3BO0-0" value="Return" style="rounded=1;whiteSpace=wrap;html=1;" parent="XduCuKOVXgxRyF3U87lP-1" vertex="1">
                    <mxGeometry x="340" y="730" width="120" height="60" as="geometry"/>
                </mxCell>
                <mxCell id="gXSYh6QorToQ10VSJgt4-6" value="input nilai atribut baru;&lt;br&gt;kosongkan atribut untuk tidak mengubah nilai lama" style="whiteSpace=wrap;html=1;rounded=1;" parent="XduCuKOVXgxRyF3U87lP-1" vertex="1">
                    <mxGeometry x="1230" y="280" width="180" height="100" as="geometry"/>
                </mxCell>
                <mxCell id="u_53YjSJL3kihmBI6AcN-0" value="&lt;h1&gt;keterangan&lt;/h1&gt;&lt;div&gt;*membutuhkan fungsi save untuk menyimpan penambahan akun pada csv&lt;/div&gt;" style="text;html=1;strokeColor=none;fillColor=none;spacing=5;spacingTop=-20;whiteSpace=wrap;overflow=hidden;rounded=0;" parent="XduCuKOVXgxRyF3U87lP-1" vertex="1">
                    <mxGeometry x="1440" y="40" width="190" height="120" as="geometry"/>
                </mxCell>
                <mxCell id="u_53YjSJL3kihmBI6AcN-1" value="menyimpan perubahan pada penyimpanan sementara" style="whiteSpace=wrap;html=1;rounded=1;" parent="XduCuKOVXgxRyF3U87lP-1" vertex="1">
                    <mxGeometry x="1380" y="200" width="120" height="60" as="geometry"/>
                </mxCell>
            </root>
        </mxGraphModel>
    </diagram>
    <diagram id="UMBJgz-3GBppVPyFoclO" name="F06">
        <mxGraphModel dx="1800" dy="1045" grid="1" gridSize="10" guides="1" tooltips="1" connect="1" arrows="1" fold="1" page="1" pageScale="1" pageWidth="827" pageHeight="1169" math="0" shadow="0">
            <root>
                <mxCell id="1JuHvx5Clrfonjw_gV_K-0"/>
                <mxCell id="1JuHvx5Clrfonjw_gV_K-1" parent="1JuHvx5Clrfonjw_gV_K-0"/>
                <mxCell id="wJCJMc_Jk5Q9DIUO7uya-0" style="edgeStyle=none;html=1;exitX=0.5;exitY=1;exitDx=0;exitDy=0;entryX=0.5;entryY=0;entryDx=0;entryDy=0;" parent="1JuHvx5Clrfonjw_gV_K-1" source="0OjKXkDat4sBWQ3CPiyX-0" target="0OjKXkDat4sBWQ3CPiyX-1" edge="1">
                    <mxGeometry relative="1" as="geometry"/>
                </mxCell>
                <mxCell id="0OjKXkDat4sBWQ3CPiyX-0" value="F06 - Mengubah Stok Game di Toko" style="rounded=1;whiteSpace=wrap;html=1;" parent="1JuHvx5Clrfonjw_gV_K-1" vertex="1">
                    <mxGeometry x="340" y="30" width="120" height="60" as="geometry"/>
                </mxCell>
                <mxCell id="wJCJMc_Jk5Q9DIUO7uya-2" value="" style="edgeStyle=none;html=1;" parent="1JuHvx5Clrfonjw_gV_K-1" source="0OjKXkDat4sBWQ3CPiyX-1" target="wJCJMc_Jk5Q9DIUO7uya-1" edge="1">
                    <mxGeometry relative="1" as="geometry"/>
                </mxCell>
                <mxCell id="0OjKXkDat4sBWQ3CPiyX-1" value="input(id_game)" style="shape=parallelogram;perimeter=parallelogramPerimeter;whiteSpace=wrap;html=1;fixedSize=1;rounded=0;glass=0;" parent="1JuHvx5Clrfonjw_gV_K-1" vertex="1">
                    <mxGeometry x="340" y="140" width="120" height="60" as="geometry"/>
                </mxCell>
                <mxCell id="wJCJMc_Jk5Q9DIUO7uya-8" value="" style="edgeStyle=none;html=1;" parent="1JuHvx5Clrfonjw_gV_K-1" source="0OjKXkDat4sBWQ3CPiyX-2" target="wJCJMc_Jk5Q9DIUO7uya-7" edge="1">
                    <mxGeometry relative="1" as="geometry"/>
                </mxCell>
                <mxCell id="0OjKXkDat4sBWQ3CPiyX-2" value="input(jumlah)" style="shape=parallelogram;perimeter=parallelogramPerimeter;whiteSpace=wrap;html=1;fixedSize=1;rounded=0;glass=0;" parent="1JuHvx5Clrfonjw_gV_K-1" vertex="1">
                    <mxGeometry x="340" y="390" width="120" height="60" as="geometry"/>
                </mxCell>
                <mxCell id="wJCJMc_Jk5Q9DIUO7uya-3" style="edgeStyle=none;html=1;exitX=0.5;exitY=1;exitDx=0;exitDy=0;entryX=0.5;entryY=0;entryDx=0;entryDy=0;" parent="1JuHvx5Clrfonjw_gV_K-1" source="wJCJMc_Jk5Q9DIUO7uya-1" target="0OjKXkDat4sBWQ3CPiyX-2" edge="1">
                    <mxGeometry relative="1" as="geometry"/>
                </mxCell>
                <mxCell id="wJCJMc_Jk5Q9DIUO7uya-5" style="edgeStyle=none;html=1;exitX=0;exitY=0.5;exitDx=0;exitDy=0;entryX=0;entryY=0.5;entryDx=0;entryDy=0;" parent="1JuHvx5Clrfonjw_gV_K-1" source="wJCJMc_Jk5Q9DIUO7uya-1" target="0OjKXkDat4sBWQ3CPiyX-1" edge="1">
                    <mxGeometry relative="1" as="geometry">
                        <Array as="points">
                            <mxPoint x="260" y="300"/>
                            <mxPoint x="260" y="170"/>
                        </Array>
                    </mxGeometry>
                </mxCell>
                <mxCell id="wJCJMc_Jk5Q9DIUO7uya-1" value="Apakah id_game Valid?" style="rhombus;whiteSpace=wrap;html=1;rounded=0;glass=0;" parent="1JuHvx5Clrfonjw_gV_K-1" vertex="1">
                    <mxGeometry x="300" y="260" width="200" height="80" as="geometry"/>
                </mxCell>
                <mxCell id="wJCJMc_Jk5Q9DIUO7uya-4" value="Ya" style="text;html=1;align=center;verticalAlign=middle;resizable=0;points=[];autosize=1;strokeColor=none;fillColor=none;" parent="1JuHvx5Clrfonjw_gV_K-1" vertex="1">
                    <mxGeometry x="405" y="350" width="30" height="20" as="geometry"/>
                </mxCell>
                <mxCell id="wJCJMc_Jk5Q9DIUO7uya-6" value="Tidak" style="text;html=1;align=center;verticalAlign=middle;resizable=0;points=[];autosize=1;strokeColor=none;fillColor=none;" parent="1JuHvx5Clrfonjw_gV_K-1" vertex="1">
                    <mxGeometry x="260" y="300" width="40" height="20" as="geometry"/>
                </mxCell>
                <mxCell id="wJCJMc_Jk5Q9DIUO7uya-11" style="edgeStyle=none;html=1;exitX=0;exitY=0.5;exitDx=0;exitDy=0;entryX=0.5;entryY=0;entryDx=0;entryDy=0;" parent="1JuHvx5Clrfonjw_gV_K-1" source="wJCJMc_Jk5Q9DIUO7uya-7" target="wJCJMc_Jk5Q9DIUO7uya-13" edge="1">
                    <mxGeometry relative="1" as="geometry">
                        <Array as="points">
                            <mxPoint x="210" y="530"/>
                        </Array>
                        <mxPoint x="210" y="630" as="targetPoint"/>
                    </mxGeometry>
                </mxCell>
                <mxCell id="wJCJMc_Jk5Q9DIUO7uya-25" value="" style="edgeStyle=none;html=1;" parent="1JuHvx5Clrfonjw_gV_K-1" source="wJCJMc_Jk5Q9DIUO7uya-7" target="wJCJMc_Jk5Q9DIUO7uya-24" edge="1">
                    <mxGeometry relative="1" as="geometry">
                        <Array as="points">
                            <mxPoint x="590" y="530"/>
                        </Array>
                    </mxGeometry>
                </mxCell>
                <mxCell id="wJCJMc_Jk5Q9DIUO7uya-7" value="jumlah?" style="rhombus;whiteSpace=wrap;html=1;rounded=0;glass=0;" parent="1JuHvx5Clrfonjw_gV_K-1" vertex="1">
                    <mxGeometry x="320" y="500" width="160" height="60" as="geometry"/>
                </mxCell>
                <mxCell id="HhDu3DH3XvvX3YqSrzRf-4" value="" style="edgeStyle=orthogonalEdgeStyle;html=1;" parent="1JuHvx5Clrfonjw_gV_K-1" source="HhDu3DH3XvvX3YqSrzRf-1" target="HhDu3DH3XvvX3YqSrzRf-3" edge="1">
                    <mxGeometry relative="1" as="geometry"/>
                </mxCell>
                <mxCell id="HhDu3DH3XvvX3YqSrzRf-6" value="" style="edgeStyle=orthogonalEdgeStyle;html=1;" parent="1JuHvx5Clrfonjw_gV_K-1" source="HhDu3DH3XvvX3YqSrzRf-1" target="HhDu3DH3XvvX3YqSrzRf-5" edge="1">
                    <mxGeometry relative="1" as="geometry"/>
                </mxCell>
                <mxCell id="HhDu3DH3XvvX3YqSrzRf-8" value="" style="edgeStyle=orthogonalEdgeStyle;html=1;" parent="1JuHvx5Clrfonjw_gV_K-1" source="HhDu3DH3XvvX3YqSrzRf-1" target="HhDu3DH3XvvX3YqSrzRf-7" edge="1">
                    <mxGeometry relative="1" as="geometry"/>
                </mxCell>
                <mxCell id="HhDu3DH3XvvX3YqSrzRf-12" value="" style="edgeStyle=orthogonalEdgeStyle;html=1;" parent="1JuHvx5Clrfonjw_gV_K-1" source="HhDu3DH3XvvX3YqSrzRf-1" target="HhDu3DH3XvvX3YqSrzRf-11" edge="1">
                    <mxGeometry relative="1" as="geometry"/>
                </mxCell>
                <mxCell id="HhDu3DH3XvvX3YqSrzRf-1" value="F06 - Mengubah Stok Game di Toko" style="rounded=1;whiteSpace=wrap;html=1;" parent="1JuHvx5Clrfonjw_gV_K-1" vertex="1">
                    <mxGeometry x="1130" y="130" width="120" height="60" as="geometry"/>
                </mxCell>
                <mxCell id="HhDu3DH3XvvX3YqSrzRf-3" value="input ID" style="whiteSpace=wrap;html=1;rounded=1;" parent="1JuHvx5Clrfonjw_gV_K-1" vertex="1">
                    <mxGeometry x="950" y="270" width="120" height="60" as="geometry"/>
                </mxCell>
                <mxCell id="HhDu3DH3XvvX3YqSrzRf-5" value="search data game berdasarkan ID" style="whiteSpace=wrap;html=1;rounded=1;" parent="1JuHvx5Clrfonjw_gV_K-1" vertex="1">
                    <mxGeometry x="1130" y="270" width="120" height="60" as="geometry"/>
                </mxCell>
                <mxCell id="wJCJMc_Jk5Q9DIUO7uya-12" value="jumlah &amp;lt; 0" style="text;html=1;align=center;verticalAlign=middle;resizable=0;points=[];autosize=1;strokeColor=none;fillColor=none;" parent="1JuHvx5Clrfonjw_gV_K-1" vertex="1">
                    <mxGeometry x="225" y="500" width="70" height="20" as="geometry"/>
                </mxCell>
                <mxCell id="HhDu3DH3XvvX3YqSrzRf-10" value="" style="edgeStyle=orthogonalEdgeStyle;html=1;" parent="1JuHvx5Clrfonjw_gV_K-1" source="HhDu3DH3XvvX3YqSrzRf-7" target="HhDu3DH3XvvX3YqSrzRf-9" edge="1">
                    <mxGeometry relative="1" as="geometry"/>
                </mxCell>
                <mxCell id="HhDu3DH3XvvX3YqSrzRf-7" value="mengubah stok" style="rounded=1;whiteSpace=wrap;html=1;" parent="1JuHvx5Clrfonjw_gV_K-1" vertex="1">
                    <mxGeometry x="1320" y="260" width="120" height="60" as="geometry"/>
                </mxCell>
                <mxCell id="wJCJMc_Jk5Q9DIUO7uya-15" value="" style="edgeStyle=none;html=1;" parent="1JuHvx5Clrfonjw_gV_K-1" source="wJCJMc_Jk5Q9DIUO7uya-13" target="wJCJMc_Jk5Q9DIUO7uya-14" edge="1">
                    <mxGeometry relative="1" as="geometry"/>
                </mxCell>
                <mxCell id="wJCJMc_Jk5Q9DIUO7uya-22" style="edgeStyle=none;html=1;exitX=0;exitY=0.5;exitDx=0;exitDy=0;entryX=0;entryY=0.5;entryDx=0;entryDy=0;" parent="1JuHvx5Clrfonjw_gV_K-1" source="wJCJMc_Jk5Q9DIUO7uya-13" target="wJCJMc_Jk5Q9DIUO7uya-18" edge="1">
                    <mxGeometry relative="1" as="geometry">
                        <Array as="points">
                            <mxPoint x="80" y="665"/>
                            <mxPoint x="80" y="900"/>
                        </Array>
                    </mxGeometry>
                </mxCell>
                <mxCell id="wJCJMc_Jk5Q9DIUO7uya-13" value="stok &amp;gt;= abs(jumlah)" style="rhombus;whiteSpace=wrap;html=1;rounded=0;glass=0;" parent="1JuHvx5Clrfonjw_gV_K-1" vertex="1">
                    <mxGeometry x="130" y="630" width="160" height="70" as="geometry"/>
                </mxCell>
                <mxCell id="HhDu3DH3XvvX3YqSrzRf-9" value="validasi agar stok akhir tidak negatif" style="rounded=1;whiteSpace=wrap;html=1;" parent="1JuHvx5Clrfonjw_gV_K-1" vertex="1">
                    <mxGeometry x="1370" y="370" width="120" height="60" as="geometry"/>
                </mxCell>
                <mxCell id="HhDu3DH3XvvX3YqSrzRf-11" value="penyimpanan sementara" style="whiteSpace=wrap;html=1;rounded=1;" parent="1JuHvx5Clrfonjw_gV_K-1" vertex="1">
                    <mxGeometry x="1460" y="130" width="120" height="60" as="geometry"/>
                </mxCell>
                <mxCell id="TUfstHc2LPuZWdwzLO81-0" value="&lt;h1&gt;keterangan&lt;/h1&gt;&lt;div&gt;*membutuhkan fungsi save untuk menyimpan penambahan akun pada csv&lt;/div&gt;" style="text;html=1;strokeColor=none;fillColor=none;spacing=5;spacingTop=-20;whiteSpace=wrap;overflow=hidden;rounded=0;" parent="1JuHvx5Clrfonjw_gV_K-1" vertex="1">
                    <mxGeometry x="1450" y="190" width="190" height="120" as="geometry"/>
                </mxCell>
                <mxCell id="wJCJMc_Jk5Q9DIUO7uya-20" value="" style="edgeStyle=none;html=1;" parent="1JuHvx5Clrfonjw_gV_K-1" source="wJCJMc_Jk5Q9DIUO7uya-14" target="wJCJMc_Jk5Q9DIUO7uya-19" edge="1">
                    <mxGeometry relative="1" as="geometry"/>
                </mxCell>
                <mxCell id="wJCJMc_Jk5Q9DIUO7uya-14" value="stok &amp;lt;-- stok + jumlah" style="whiteSpace=wrap;html=1;rounded=0;glass=0;" parent="1JuHvx5Clrfonjw_gV_K-1" vertex="1">
                    <mxGeometry x="150" y="760" width="120" height="60" as="geometry"/>
                </mxCell>
                <mxCell id="wJCJMc_Jk5Q9DIUO7uya-16" value="True" style="text;html=1;align=center;verticalAlign=middle;resizable=0;points=[];autosize=1;strokeColor=none;fillColor=none;" parent="1JuHvx5Clrfonjw_gV_K-1" vertex="1">
                    <mxGeometry x="210" y="720" width="40" height="20" as="geometry"/>
                </mxCell>
                <mxCell id="wJCJMc_Jk5Q9DIUO7uya-18" value="Return" style="rounded=1;whiteSpace=wrap;html=1;glass=0;" parent="1JuHvx5Clrfonjw_gV_K-1" vertex="1">
                    <mxGeometry x="340" y="870" width="120" height="60" as="geometry"/>
                </mxCell>
                <mxCell id="wJCJMc_Jk5Q9DIUO7uya-27" style="edgeStyle=none;html=1;" parent="1JuHvx5Clrfonjw_gV_K-1" source="wJCJMc_Jk5Q9DIUO7uya-19" target="wJCJMc_Jk5Q9DIUO7uya-18" edge="1">
                    <mxGeometry relative="1" as="geometry"/>
                </mxCell>
                <mxCell id="wJCJMc_Jk5Q9DIUO7uya-19" value="Perbaharui data di game.csv" style="whiteSpace=wrap;html=1;rounded=0;glass=0;" parent="1JuHvx5Clrfonjw_gV_K-1" vertex="1">
                    <mxGeometry x="340" y="760" width="120" height="60" as="geometry"/>
                </mxCell>
                <mxCell id="wJCJMc_Jk5Q9DIUO7uya-23" value="False" style="text;html=1;align=center;verticalAlign=middle;resizable=0;points=[];autosize=1;strokeColor=none;fillColor=none;" parent="1JuHvx5Clrfonjw_gV_K-1" vertex="1">
                    <mxGeometry x="85" y="640" width="50" height="20" as="geometry"/>
                </mxCell>
                <mxCell id="wJCJMc_Jk5Q9DIUO7uya-28" style="edgeStyle=none;html=1;exitX=0.5;exitY=1;exitDx=0;exitDy=0;entryX=1;entryY=0.5;entryDx=0;entryDy=0;" parent="1JuHvx5Clrfonjw_gV_K-1" source="wJCJMc_Jk5Q9DIUO7uya-24" target="wJCJMc_Jk5Q9DIUO7uya-19" edge="1">
                    <mxGeometry relative="1" as="geometry">
                        <Array as="points">
                            <mxPoint x="590" y="790"/>
                        </Array>
                    </mxGeometry>
                </mxCell>
                <mxCell id="wJCJMc_Jk5Q9DIUO7uya-24" value="stok &amp;lt;-- stok + jumlah" style="whiteSpace=wrap;html=1;rounded=0;glass=0;" parent="1JuHvx5Clrfonjw_gV_K-1" vertex="1">
                    <mxGeometry x="530" y="635" width="120" height="60" as="geometry"/>
                </mxCell>
                <mxCell id="wJCJMc_Jk5Q9DIUO7uya-26" value="jumlah &amp;gt; 0" style="text;html=1;align=center;verticalAlign=middle;resizable=0;points=[];autosize=1;strokeColor=none;fillColor=none;" parent="1JuHvx5Clrfonjw_gV_K-1" vertex="1">
                    <mxGeometry x="510" y="500" width="70" height="20" as="geometry"/>
                </mxCell>
            </root>
        </mxGraphModel>
    </diagram>
    <diagram id="Aanbpl21vAeVHXebOXoo" name="F07">
        <mxGraphModel grid="1" gridSize="10" guides="1" tooltips="1" connect="1" arrows="1" page="1" fold="1" pageScale="1" pageWidth="827" pageHeight="1169" math="0" shadow="0">
            <root>
                <mxCell id="YHvUmmccPdtQWPute-4_-0"/>
                <mxCell id="YHvUmmccPdtQWPute-4_-1" parent="YHvUmmccPdtQWPute-4_-0"/>
                <mxCell id="SxAVBKmbRyDobJeoOVW8-2" value="" style="edgeStyle=orthogonalEdgeStyle;html=1;" edge="1" parent="YHvUmmccPdtQWPute-4_-1" source="SxAVBKmbRyDobJeoOVW8-0" target="SxAVBKmbRyDobJeoOVW8-1">
                    <mxGeometry relative="1" as="geometry"/>
                </mxCell>
                <mxCell id="SxAVBKmbRyDobJeoOVW8-4" value="" style="edgeStyle=orthogonalEdgeStyle;html=1;" edge="1" parent="YHvUmmccPdtQWPute-4_-1" source="SxAVBKmbRyDobJeoOVW8-0" target="SxAVBKmbRyDobJeoOVW8-3">
                    <mxGeometry relative="1" as="geometry"/>
                </mxCell>
                <mxCell id="SxAVBKmbRyDobJeoOVW8-6" value="" style="edgeStyle=orthogonalEdgeStyle;html=1;" edge="1" parent="YHvUmmccPdtQWPute-4_-1" source="SxAVBKmbRyDobJeoOVW8-0" target="SxAVBKmbRyDobJeoOVW8-5">
                    <mxGeometry relative="1" as="geometry"/>
                </mxCell>
                <mxCell id="SxAVBKmbRyDobJeoOVW8-0" value="F07 - listing game" style="rounded=0;whiteSpace=wrap;html=1;" vertex="1" parent="YHvUmmccPdtQWPute-4_-1">
                    <mxGeometry x="354" y="90" width="120" height="60" as="geometry"/>
                </mxCell>
                <mxCell id="SxAVBKmbRyDobJeoOVW8-1" value="membaca csv (game.csv)" style="rounded=0;whiteSpace=wrap;html=1;" vertex="1" parent="YHvUmmccPdtQWPute-4_-1">
                    <mxGeometry x="130" y="230" width="120" height="60" as="geometry"/>
                </mxCell>
                <mxCell id="SxAVBKmbRyDobJeoOVW8-3" value="search dan sort" style="rounded=0;whiteSpace=wrap;html=1;" vertex="1" parent="YHvUmmccPdtQWPute-4_-1">
                    <mxGeometry x="270" y="250" width="120" height="60" as="geometry"/>
                </mxCell>
                <mxCell id="SxAVBKmbRyDobJeoOVW8-5" value="menampilkan isi csv" style="rounded=0;whiteSpace=wrap;html=1;" vertex="1" parent="YHvUmmccPdtQWPute-4_-1">
                    <mxGeometry x="430" y="290" width="120" height="60" as="geometry"/>
                </mxCell>
            </root>
        </mxGraphModel>
    </diagram>
    <diagram id="XeGTfWkbYVDqage_3UCT" name="F08">
        <mxGraphModel dx="2475" dy="1438" grid="1" gridSize="10" guides="1" tooltips="1" connect="1" arrows="1" fold="1" page="1" pageScale="1" pageWidth="827" pageHeight="1169" math="0" shadow="0">
            <root>
                <mxCell id="IcK9cgWvnHCkf9x-jkBt-0"/>
                <mxCell id="IcK9cgWvnHCkf9x-jkBt-1" parent="IcK9cgWvnHCkf9x-jkBt-0"/>
                <mxCell id="4V2ziZHkqaEQVqLDyDBB-1" style="edgeStyle=none;html=1;exitX=0.5;exitY=1;exitDx=0;exitDy=0;" parent="IcK9cgWvnHCkf9x-jkBt-1" source="3M7wT-5ITwZSRzz-Ny1k-0" target="4V2ziZHkqaEQVqLDyDBB-0" edge="1">
                    <mxGeometry relative="1" as="geometry"/>
                </mxCell>
                <mxCell id="3M7wT-5ITwZSRzz-Ny1k-0" value="F08 - Membeli Game" style="rounded=1;whiteSpace=wrap;html=1;" parent="IcK9cgWvnHCkf9x-jkBt-1" vertex="1">
                    <mxGeometry x="340" y="30" width="120" height="60" as="geometry"/>
                </mxCell>
                <mxCell id="4V2ziZHkqaEQVqLDyDBB-4" value="" style="edgeStyle=none;html=1;" parent="IcK9cgWvnHCkf9x-jkBt-1" source="4V2ziZHkqaEQVqLDyDBB-0" target="4V2ziZHkqaEQVqLDyDBB-3" edge="1">
                    <mxGeometry relative="1" as="geometry"/>
                </mxCell>
                <mxCell id="4V2ziZHkqaEQVqLDyDBB-0" value="input(id_game)" style="shape=parallelogram;perimeter=parallelogramPerimeter;whiteSpace=wrap;html=1;fixedSize=1;rounded=0;glass=0;" parent="IcK9cgWvnHCkf9x-jkBt-1" vertex="1">
                    <mxGeometry x="340" y="150" width="120" height="60" as="geometry"/>
                </mxCell>
                <mxCell id="4V2ziZHkqaEQVqLDyDBB-7" value="" style="edgeStyle=none;html=1;" parent="IcK9cgWvnHCkf9x-jkBt-1" source="4V2ziZHkqaEQVqLDyDBB-3" target="4V2ziZHkqaEQVqLDyDBB-6" edge="1">
                    <mxGeometry relative="1" as="geometry"/>
                </mxCell>
                <mxCell id="4V2ziZHkqaEQVqLDyDBB-17" style="edgeStyle=none;html=1;exitX=0;exitY=0.5;exitDx=0;exitDy=0;entryX=0;entryY=0.5;entryDx=0;entryDy=0;" parent="IcK9cgWvnHCkf9x-jkBt-1" source="4V2ziZHkqaEQVqLDyDBB-3" target="4V2ziZHkqaEQVqLDyDBB-15" edge="1">
                    <mxGeometry relative="1" as="geometry">
                        <Array as="points">
                            <mxPoint x="250" y="300"/>
                            <mxPoint x="250" y="810"/>
                        </Array>
                    </mxGeometry>
                </mxCell>
                <mxCell id="4V2ziZHkqaEQVqLDyDBB-3" value="stok &amp;gt; 0" style="rhombus;whiteSpace=wrap;html=1;rounded=0;glass=0;" parent="IcK9cgWvnHCkf9x-jkBt-1" vertex="1">
                    <mxGeometry x="320" y="260" width="160" height="80" as="geometry"/>
                </mxCell>
                <mxCell id="4V2ziZHkqaEQVqLDyDBB-10" value="" style="edgeStyle=none;html=1;" parent="IcK9cgWvnHCkf9x-jkBt-1" source="4V2ziZHkqaEQVqLDyDBB-6" target="4V2ziZHkqaEQVqLDyDBB-9" edge="1">
                    <mxGeometry relative="1" as="geometry"/>
                </mxCell>
                <mxCell id="4V2ziZHkqaEQVqLDyDBB-18" style="edgeStyle=none;html=1;exitX=0;exitY=0.5;exitDx=0;exitDy=0;entryX=0;entryY=0.5;entryDx=0;entryDy=0;" parent="IcK9cgWvnHCkf9x-jkBt-1" source="4V2ziZHkqaEQVqLDyDBB-6" target="4V2ziZHkqaEQVqLDyDBB-15" edge="1">
                    <mxGeometry relative="1" as="geometry">
                        <Array as="points">
                            <mxPoint x="250" y="430"/>
                            <mxPoint x="250" y="810"/>
                        </Array>
                    </mxGeometry>
                </mxCell>
                <mxCell id="4V2ziZHkqaEQVqLDyDBB-6" value="saldo &amp;gt;= harga" style="rhombus;whiteSpace=wrap;html=1;rounded=0;glass=0;" parent="IcK9cgWvnHCkf9x-jkBt-1" vertex="1">
                    <mxGeometry x="320" y="390" width="160" height="80" as="geometry"/>
                </mxCell>
                <mxCell id="4V2ziZHkqaEQVqLDyDBB-8" value="True" style="text;html=1;align=center;verticalAlign=middle;resizable=0;points=[];autosize=1;strokeColor=none;fillColor=none;" parent="IcK9cgWvnHCkf9x-jkBt-1" vertex="1">
                    <mxGeometry x="400" y="350" width="40" height="20" as="geometry"/>
                </mxCell>
                <mxCell id="4V2ziZHkqaEQVqLDyDBB-13" value="" style="edgeStyle=none;html=1;" parent="IcK9cgWvnHCkf9x-jkBt-1" source="4V2ziZHkqaEQVqLDyDBB-9" target="4V2ziZHkqaEQVqLDyDBB-12" edge="1">
                    <mxGeometry relative="1" as="geometry"/>
                </mxCell>
                <mxCell id="4V2ziZHkqaEQVqLDyDBB-19" style="edgeStyle=none;html=1;exitX=0;exitY=0.5;exitDx=0;exitDy=0;entryX=0;entryY=0.5;entryDx=0;entryDy=0;" parent="IcK9cgWvnHCkf9x-jkBt-1" source="4V2ziZHkqaEQVqLDyDBB-9" target="4V2ziZHkqaEQVqLDyDBB-15" edge="1">
                    <mxGeometry relative="1" as="geometry">
                        <Array as="points">
                            <mxPoint x="250" y="570"/>
                            <mxPoint x="250" y="810"/>
                        </Array>
                    </mxGeometry>
                </mxCell>
                <mxCell id="4V2ziZHkqaEQVqLDyDBB-9" value="id_game terdata di kepemilikan.csv" style="rhombus;whiteSpace=wrap;html=1;rounded=0;glass=0;" parent="IcK9cgWvnHCkf9x-jkBt-1" vertex="1">
                    <mxGeometry x="320" y="530" width="160" height="80" as="geometry"/>
                </mxCell>
                <mxCell id="4V2ziZHkqaEQVqLDyDBB-11" value="True" style="text;html=1;align=center;verticalAlign=middle;resizable=0;points=[];autosize=1;strokeColor=none;fillColor=none;" parent="IcK9cgWvnHCkf9x-jkBt-1" vertex="1">
                    <mxGeometry x="400" y="490" width="40" height="20" as="geometry"/>
                </mxCell>
                <mxCell id="4V2ziZHkqaEQVqLDyDBB-16" style="edgeStyle=none;html=1;exitX=0.5;exitY=1;exitDx=0;exitDy=0;entryX=0.5;entryY=0;entryDx=0;entryDy=0;" parent="IcK9cgWvnHCkf9x-jkBt-1" source="4V2ziZHkqaEQVqLDyDBB-12" target="4V2ziZHkqaEQVqLDyDBB-15" edge="1">
                    <mxGeometry relative="1" as="geometry"/>
                </mxCell>
                <mxCell id="4V2ziZHkqaEQVqLDyDBB-12" value="Tambah game ke kepemilikan.csv" style="whiteSpace=wrap;html=1;rounded=0;glass=0;" parent="IcK9cgWvnHCkf9x-jkBt-1" vertex="1">
                    <mxGeometry x="340" y="670" width="120" height="60" as="geometry"/>
                </mxCell>
                <mxCell id="4V2ziZHkqaEQVqLDyDBB-14" value="False" style="text;html=1;align=center;verticalAlign=middle;resizable=0;points=[];autosize=1;strokeColor=none;fillColor=none;" parent="IcK9cgWvnHCkf9x-jkBt-1" vertex="1">
                    <mxGeometry x="400" y="630" width="50" height="20" as="geometry"/>
                </mxCell>
                <mxCell id="4V2ziZHkqaEQVqLDyDBB-15" value="Return" style="rounded=1;whiteSpace=wrap;html=1;glass=0;" parent="IcK9cgWvnHCkf9x-jkBt-1" vertex="1">
                    <mxGeometry x="340" y="780" width="120" height="60" as="geometry"/>
                </mxCell>
                <mxCell id="4V2ziZHkqaEQVqLDyDBB-20" value="False" style="text;html=1;align=center;verticalAlign=middle;resizable=0;points=[];autosize=1;strokeColor=none;fillColor=none;" parent="IcK9cgWvnHCkf9x-jkBt-1" vertex="1">
                    <mxGeometry x="270" y="280" width="50" height="20" as="geometry"/>
                </mxCell>
                <mxCell id="4V2ziZHkqaEQVqLDyDBB-21" value="False" style="text;html=1;align=center;verticalAlign=middle;resizable=0;points=[];autosize=1;strokeColor=none;fillColor=none;" parent="IcK9cgWvnHCkf9x-jkBt-1" vertex="1">
                    <mxGeometry x="270" y="410" width="50" height="20" as="geometry"/>
                </mxCell>
                <mxCell id="4V2ziZHkqaEQVqLDyDBB-22" value="True" style="text;html=1;align=center;verticalAlign=middle;resizable=0;points=[];autosize=1;strokeColor=none;fillColor=none;" parent="IcK9cgWvnHCkf9x-jkBt-1" vertex="1">
                    <mxGeometry x="275" y="550" width="40" height="20" as="geometry"/>
                </mxCell>
                <mxCell id="VDB7UKQSI8uclwvUj4rK-4" value="" style="edgeStyle=orthogonalEdgeStyle;html=1;" parent="IcK9cgWvnHCkf9x-jkBt-1" source="VDB7UKQSI8uclwvUj4rK-2" target="VDB7UKQSI8uclwvUj4rK-3" edge="1">
                    <mxGeometry relative="1" as="geometry"/>
                </mxCell>
                <mxCell id="VDB7UKQSI8uclwvUj4rK-6" value="" style="edgeStyle=orthogonalEdgeStyle;html=1;" parent="IcK9cgWvnHCkf9x-jkBt-1" source="VDB7UKQSI8uclwvUj4rK-2" target="VDB7UKQSI8uclwvUj4rK-5" edge="1">
                    <mxGeometry relative="1" as="geometry"/>
                </mxCell>
                <mxCell id="VDB7UKQSI8uclwvUj4rK-8" value="" style="edgeStyle=orthogonalEdgeStyle;html=1;" parent="IcK9cgWvnHCkf9x-jkBt-1" source="VDB7UKQSI8uclwvUj4rK-2" target="VDB7UKQSI8uclwvUj4rK-7" edge="1">
                    <mxGeometry relative="1" as="geometry"/>
                </mxCell>
                <mxCell id="VDB7UKQSI8uclwvUj4rK-10" value="" style="edgeStyle=orthogonalEdgeStyle;html=1;" parent="IcK9cgWvnHCkf9x-jkBt-1" source="VDB7UKQSI8uclwvUj4rK-2" target="VDB7UKQSI8uclwvUj4rK-9" edge="1">
                    <mxGeometry relative="1" as="geometry"/>
                </mxCell>
                <mxCell id="VDB7UKQSI8uclwvUj4rK-2" value="F08 - Membeli Game" style="rounded=1;whiteSpace=wrap;html=1;" parent="IcK9cgWvnHCkf9x-jkBt-1" vertex="1">
                    <mxGeometry x="1181" y="130" width="120" height="60" as="geometry"/>
                </mxCell>
                <mxCell id="VDB7UKQSI8uclwvUj4rK-3" value="cek saldo" style="whiteSpace=wrap;html=1;rounded=1;" parent="IcK9cgWvnHCkf9x-jkBt-1" vertex="1">
                    <mxGeometry x="1090" y="280" width="120" height="60" as="geometry"/>
                </mxCell>
                <mxCell id="VDB7UKQSI8uclwvUj4rK-5" value="cek stok" style="whiteSpace=wrap;html=1;rounded=1;" parent="IcK9cgWvnHCkf9x-jkBt-1" vertex="1">
                    <mxGeometry x="970" y="230" width="120" height="60" as="geometry"/>
                </mxCell>
                <mxCell id="VDB7UKQSI8uclwvUj4rK-7" value="cek inventory game pada user" style="rounded=1;whiteSpace=wrap;html=1;" parent="IcK9cgWvnHCkf9x-jkBt-1" vertex="1">
                    <mxGeometry x="1230" y="310" width="120" height="60" as="geometry"/>
                </mxCell>
                <mxCell id="VDB7UKQSI8uclwvUj4rK-9" value="pembelian (pengurangan saldo, pengurangan stok,&lt;br&gt;penambahan inventory)" style="rounded=1;whiteSpace=wrap;html=1;" parent="IcK9cgWvnHCkf9x-jkBt-1" vertex="1">
                    <mxGeometry x="1381" y="125" width="199" height="70" as="geometry"/>
                </mxCell>
            </root>
        </mxGraphModel>
    </diagram>
    <diagram id="yjDSmJtNdjh3LuzWYJ_w" name="F09">
        <mxGraphModel dx="1165" dy="676" grid="1" gridSize="10" guides="1" tooltips="1" connect="1" arrows="1" fold="1" page="1" pageScale="1" pageWidth="827" pageHeight="1169" math="0" shadow="0">
            <root>
                <mxCell id="t6zb_5dvL6fW2Wl9CMh3-0"/>
                <mxCell id="t6zb_5dvL6fW2Wl9CMh3-1" parent="t6zb_5dvL6fW2Wl9CMh3-0"/>
                <mxCell id="XTnlYhvKmWGSbJxN5-J2-1" value="" style="edgeStyle=none;html=1;" parent="t6zb_5dvL6fW2Wl9CMh3-1" source="EbbuzSWEA-4oA8p3cjd4-1" target="XTnlYhvKmWGSbJxN5-J2-0" edge="1">
                    <mxGeometry relative="1" as="geometry"/>
                </mxCell>
                <mxCell id="EbbuzSWEA-4oA8p3cjd4-1" value="F09 - Melihat Game yang Dimiliki" style="whiteSpace=wrap;html=1;rounded=0;" parent="t6zb_5dvL6fW2Wl9CMh3-1" vertex="1">
                    <mxGeometry x="340" y="60" width="120" height="60" as="geometry"/>
                </mxCell>
                <mxCell id="XTnlYhvKmWGSbJxN5-J2-3" value="" style="edgeStyle=none;html=1;" parent="t6zb_5dvL6fW2Wl9CMh3-1" source="XTnlYhvKmWGSbJxN5-J2-0" target="XTnlYhvKmWGSbJxN5-J2-2" edge="1">
                    <mxGeometry relative="1" as="geometry"/>
                </mxCell>
                <mxCell id="XTnlYhvKmWGSbJxN5-J2-6" value="" style="edgeStyle=none;html=1;" parent="t6zb_5dvL6fW2Wl9CMh3-1" source="XTnlYhvKmWGSbJxN5-J2-0" edge="1">
                    <mxGeometry relative="1" as="geometry">
                        <mxPoint x="400" y="340" as="targetPoint"/>
                    </mxGeometry>
                </mxCell>
                <mxCell id="XTnlYhvKmWGSbJxN5-J2-0" value="Apakah user&amp;nbsp;&lt;br&gt;memiliki game?" style="rhombus;whiteSpace=wrap;html=1;rounded=0;" parent="t6zb_5dvL6fW2Wl9CMh3-1" vertex="1">
                    <mxGeometry x="330" y="170" width="140" height="80" as="geometry"/>
                </mxCell>
                <mxCell id="XTnlYhvKmWGSbJxN5-J2-2" value="menuliskan pesan eror" style="whiteSpace=wrap;html=1;rounded=0;" parent="t6zb_5dvL6fW2Wl9CMh3-1" vertex="1">
                    <mxGeometry x="560" y="180" width="120" height="60" as="geometry"/>
                </mxCell>
                <mxCell id="XTnlYhvKmWGSbJxN5-J2-4" value="Tidak" style="text;html=1;strokeColor=none;fillColor=none;align=center;verticalAlign=middle;whiteSpace=wrap;rounded=0;" parent="t6zb_5dvL6fW2Wl9CMh3-1" vertex="1">
                    <mxGeometry x="470" y="180" width="60" height="30" as="geometry"/>
                </mxCell>
                <mxCell id="XTnlYhvKmWGSbJxN5-J2-7" value="Ya" style="text;html=1;strokeColor=none;fillColor=none;align=center;verticalAlign=middle;whiteSpace=wrap;rounded=0;rotation=-90;" parent="t6zb_5dvL6fW2Wl9CMh3-1" vertex="1">
                    <mxGeometry x="354" y="270" width="60" height="30" as="geometry"/>
                </mxCell>
                <mxCell id="nrHa-2QM5lvnbBEQsudQ-0" value="Menampilkan daftar game" style="rounded=0;whiteSpace=wrap;html=1;" parent="t6zb_5dvL6fW2Wl9CMh3-1" vertex="1">
                    <mxGeometry x="340" y="340" width="120" height="60" as="geometry"/>
                </mxCell>
                <mxCell id="HRe0z6Su2wdAlzSd3_Ge-2" value="" style="edgeStyle=orthogonalEdgeStyle;html=1;" parent="t6zb_5dvL6fW2Wl9CMh3-1" source="HRe0z6Su2wdAlzSd3_Ge-0" target="HRe0z6Su2wdAlzSd3_Ge-1" edge="1">
                    <mxGeometry relative="1" as="geometry"/>
                </mxCell>
                <mxCell id="HRe0z6Su2wdAlzSd3_Ge-4" value="" style="edgeStyle=orthogonalEdgeStyle;html=1;" parent="t6zb_5dvL6fW2Wl9CMh3-1" source="HRe0z6Su2wdAlzSd3_Ge-0" target="HRe0z6Su2wdAlzSd3_Ge-3" edge="1">
                    <mxGeometry relative="1" as="geometry"/>
                </mxCell>
                <mxCell id="HRe0z6Su2wdAlzSd3_Ge-6" value="" style="edgeStyle=orthogonalEdgeStyle;html=1;" parent="t6zb_5dvL6fW2Wl9CMh3-1" source="HRe0z6Su2wdAlzSd3_Ge-0" target="HRe0z6Su2wdAlzSd3_Ge-5" edge="1">
                    <mxGeometry relative="1" as="geometry"/>
                </mxCell>
                <mxCell id="HRe0z6Su2wdAlzSd3_Ge-0" value="F09 - Melihat Game yang Dimiliki" style="whiteSpace=wrap;html=1;rounded=0;" parent="t6zb_5dvL6fW2Wl9CMh3-1" vertex="1">
                    <mxGeometry x="310" y="570" width="120" height="60" as="geometry"/>
                </mxCell>
                <mxCell id="HRe0z6Su2wdAlzSd3_Ge-1" value="inventory game" style="whiteSpace=wrap;html=1;rounded=0;" parent="t6zb_5dvL6fW2Wl9CMh3-1" vertex="1">
                    <mxGeometry x="120" y="720" width="120" height="60" as="geometry"/>
                </mxCell>
                <mxCell id="HRe0z6Su2wdAlzSd3_Ge-3" value="sorting berdasarkan atribut pada inventory" style="whiteSpace=wrap;html=1;rounded=0;" parent="t6zb_5dvL6fW2Wl9CMh3-1" vertex="1">
                    <mxGeometry x="310" y="710" width="120" height="60" as="geometry"/>
                </mxCell>
                <mxCell id="HRe0z6Su2wdAlzSd3_Ge-5" value="mencetak game" style="whiteSpace=wrap;html=1;rounded=0;" parent="t6zb_5dvL6fW2Wl9CMh3-1" vertex="1">
                    <mxGeometry x="500" y="720" width="120" height="60" as="geometry"/>
                </mxCell>
            </root>
        </mxGraphModel>
    </diagram>
    <diagram id="e_PHdpB8H2HsdwCSuWhl" name="F10">
        <mxGraphModel dx="812" dy="676" grid="1" gridSize="10" guides="1" tooltips="1" connect="1" arrows="1" fold="1" page="1" pageScale="1" pageWidth="827" pageHeight="1169" math="0" shadow="0">
            <root>
                <mxCell id="HEb02cXrrv0Sx9c5shek-0"/>
                <mxCell id="HEb02cXrrv0Sx9c5shek-1" parent="HEb02cXrrv0Sx9c5shek-0"/>
                <mxCell id="VJdj42kwpR1PIox-cCjQ-4" style="edgeStyle=none;html=1;exitX=0.5;exitY=1;exitDx=0;exitDy=0;" parent="HEb02cXrrv0Sx9c5shek-1" source="VJdj42kwpR1PIox-cCjQ-0" target="VJdj42kwpR1PIox-cCjQ-1" edge="1">
                    <mxGeometry relative="1" as="geometry"/>
                </mxCell>
                <mxCell id="VJdj42kwpR1PIox-cCjQ-0" value="F10 - Mencari Game yang Dimiliki dari ID dan Tahun Rilis" style="rounded=1;whiteSpace=wrap;html=1;" parent="HEb02cXrrv0Sx9c5shek-1" vertex="1">
                    <mxGeometry x="340" y="30" width="120" height="60" as="geometry"/>
                </mxCell>
                <mxCell id="VJdj42kwpR1PIox-cCjQ-3" value="" style="edgeStyle=none;html=1;" parent="HEb02cXrrv0Sx9c5shek-1" source="VJdj42kwpR1PIox-cCjQ-1" target="VJdj42kwpR1PIox-cCjQ-2" edge="1">
                    <mxGeometry relative="1" as="geometry"/>
                </mxCell>
                <mxCell id="VJdj42kwpR1PIox-cCjQ-1" value="input(id_game)" style="shape=parallelogram;perimeter=parallelogramPerimeter;whiteSpace=wrap;html=1;fixedSize=1;rounded=0;glass=0;" parent="HEb02cXrrv0Sx9c5shek-1" vertex="1">
                    <mxGeometry x="340" y="130" width="120" height="60" as="geometry"/>
                </mxCell>
                <mxCell id="VJdj42kwpR1PIox-cCjQ-6" value="" style="edgeStyle=none;html=1;" parent="HEb02cXrrv0Sx9c5shek-1" source="VJdj42kwpR1PIox-cCjQ-2" target="VJdj42kwpR1PIox-cCjQ-5" edge="1">
                    <mxGeometry relative="1" as="geometry"/>
                </mxCell>
                <mxCell id="VJdj42kwpR1PIox-cCjQ-2" value="input(tahun_rilis)" style="shape=parallelogram;perimeter=parallelogramPerimeter;whiteSpace=wrap;html=1;fixedSize=1;rounded=0;glass=0;" parent="HEb02cXrrv0Sx9c5shek-1" vertex="1">
                    <mxGeometry x="340" y="230" width="120" height="60" as="geometry"/>
                </mxCell>
                <mxCell id="VJdj42kwpR1PIox-cCjQ-8" value="" style="edgeStyle=none;html=1;" parent="HEb02cXrrv0Sx9c5shek-1" source="VJdj42kwpR1PIox-cCjQ-5" target="VJdj42kwpR1PIox-cCjQ-7" edge="1">
                    <mxGeometry relative="1" as="geometry"/>
                </mxCell>
                <mxCell id="VJdj42kwpR1PIox-cCjQ-5" value="Cari Game pada kepemilikan.csv" style="whiteSpace=wrap;html=1;rounded=0;glass=0;" parent="HEb02cXrrv0Sx9c5shek-1" vertex="1">
                    <mxGeometry x="340" y="330" width="120" height="60" as="geometry"/>
                </mxCell>
                <mxCell id="VJdj42kwpR1PIox-cCjQ-10" style="edgeStyle=none;html=1;exitX=1;exitY=0.5;exitDx=0;exitDy=0;entryX=0.5;entryY=0;entryDx=0;entryDy=0;" parent="HEb02cXrrv0Sx9c5shek-1" source="VJdj42kwpR1PIox-cCjQ-7" target="VJdj42kwpR1PIox-cCjQ-9" edge="1">
                    <mxGeometry relative="1" as="geometry">
                        <Array as="points">
                            <mxPoint x="590" y="470"/>
                        </Array>
                    </mxGeometry>
                </mxCell>
                <mxCell id="VJdj42kwpR1PIox-cCjQ-16" value="" style="edgeStyle=none;html=1;entryX=0.5;entryY=0;entryDx=0;entryDy=0;" parent="HEb02cXrrv0Sx9c5shek-1" source="VJdj42kwpR1PIox-cCjQ-7" target="VJdj42kwpR1PIox-cCjQ-15" edge="1">
                    <mxGeometry relative="1" as="geometry">
                        <Array as="points">
                            <mxPoint x="210" y="470"/>
                        </Array>
                    </mxGeometry>
                </mxCell>
                <mxCell id="VJdj42kwpR1PIox-cCjQ-7" value="Apakah game ada di kepemilikan.csv?" style="rhombus;whiteSpace=wrap;html=1;rounded=0;glass=0;" parent="HEb02cXrrv0Sx9c5shek-1" vertex="1">
                    <mxGeometry x="310" y="430" width="180" height="80" as="geometry"/>
                </mxCell>
                <mxCell id="VJdj42kwpR1PIox-cCjQ-13" style="edgeStyle=none;html=1;exitX=0.5;exitY=1;exitDx=0;exitDy=0;entryX=1;entryY=0.5;entryDx=0;entryDy=0;" parent="HEb02cXrrv0Sx9c5shek-1" source="VJdj42kwpR1PIox-cCjQ-9" target="VJdj42kwpR1PIox-cCjQ-12" edge="1">
                    <mxGeometry relative="1" as="geometry">
                        <Array as="points">
                            <mxPoint x="590" y="660"/>
                        </Array>
                    </mxGeometry>
                </mxCell>
                <mxCell id="VJdj42kwpR1PIox-cCjQ-9" value="output(id_game, nama_game, harga, kategori, tahun_rilis)" style="shape=parallelogram;perimeter=parallelogramPerimeter;whiteSpace=wrap;html=1;fixedSize=1;rounded=0;glass=0;" parent="HEb02cXrrv0Sx9c5shek-1" vertex="1">
                    <mxGeometry x="500" y="525" width="180" height="60" as="geometry"/>
                </mxCell>
                <mxCell id="VJdj42kwpR1PIox-cCjQ-11" value="Ada" style="text;html=1;align=center;verticalAlign=middle;resizable=0;points=[];autosize=1;strokeColor=none;fillColor=none;" parent="HEb02cXrrv0Sx9c5shek-1" vertex="1">
                    <mxGeometry x="520" y="450" width="40" height="20" as="geometry"/>
                </mxCell>
                <mxCell id="VJdj42kwpR1PIox-cCjQ-12" value="Return" style="rounded=1;whiteSpace=wrap;html=1;glass=0;" parent="HEb02cXrrv0Sx9c5shek-1" vertex="1">
                    <mxGeometry x="340" y="630" width="120" height="60" as="geometry"/>
                </mxCell>
                <mxCell id="VJdj42kwpR1PIox-cCjQ-18" style="edgeStyle=none;html=1;exitX=0.5;exitY=1;exitDx=0;exitDy=0;entryX=0;entryY=0.5;entryDx=0;entryDy=0;" parent="HEb02cXrrv0Sx9c5shek-1" source="VJdj42kwpR1PIox-cCjQ-15" target="VJdj42kwpR1PIox-cCjQ-12" edge="1">
                    <mxGeometry relative="1" as="geometry">
                        <Array as="points">
                            <mxPoint x="210" y="660"/>
                        </Array>
                    </mxGeometry>
                </mxCell>
                <mxCell id="VJdj42kwpR1PIox-cCjQ-15" value="output(&quot;Tidak ada game pada inventory-mu yang memenuhi kriteria&quot;)" style="shape=parallelogram;perimeter=parallelogramPerimeter;whiteSpace=wrap;html=1;fixedSize=1;rounded=0;glass=0;" parent="HEb02cXrrv0Sx9c5shek-1" vertex="1">
                    <mxGeometry x="120" y="525" width="180" height="60" as="geometry"/>
                </mxCell>
                <mxCell id="VJdj42kwpR1PIox-cCjQ-17" value="Tidak Ada" style="text;html=1;align=center;verticalAlign=middle;resizable=0;points=[];autosize=1;strokeColor=none;fillColor=none;" parent="HEb02cXrrv0Sx9c5shek-1" vertex="1">
                    <mxGeometry x="215" y="450" width="70" height="20" as="geometry"/>
                </mxCell>
                <mxCell id="D_eo27dGLn21yTp5IPlV-2" value="" style="edgeStyle=orthogonalEdgeStyle;html=1;" parent="HEb02cXrrv0Sx9c5shek-1" source="D_eo27dGLn21yTp5IPlV-0" target="D_eo27dGLn21yTp5IPlV-1" edge="1">
                    <mxGeometry relative="1" as="geometry"/>
                </mxCell>
                <mxCell id="D_eo27dGLn21yTp5IPlV-4" value="" style="edgeStyle=orthogonalEdgeStyle;html=1;" parent="HEb02cXrrv0Sx9c5shek-1" source="D_eo27dGLn21yTp5IPlV-0" target="D_eo27dGLn21yTp5IPlV-3" edge="1">
                    <mxGeometry relative="1" as="geometry"/>
                </mxCell>
                <mxCell id="D_eo27dGLn21yTp5IPlV-6" value="" style="edgeStyle=orthogonalEdgeStyle;html=1;" parent="HEb02cXrrv0Sx9c5shek-1" source="D_eo27dGLn21yTp5IPlV-0" target="D_eo27dGLn21yTp5IPlV-5" edge="1">
                    <mxGeometry relative="1" as="geometry"/>
                </mxCell>
                <mxCell id="D_eo27dGLn21yTp5IPlV-0" value="F10 - Mencari Game yang Dimiliki dari ID dan Tahun Rilis" style="rounded=1;whiteSpace=wrap;html=1;" parent="HEb02cXrrv0Sx9c5shek-1" vertex="1">
                    <mxGeometry x="354" y="770" width="120" height="60" as="geometry"/>
                </mxCell>
                <mxCell id="D_eo27dGLn21yTp5IPlV-1" value="mengakses csv (kepemilikan.csv)" style="rounded=1;whiteSpace=wrap;html=1;" parent="HEb02cXrrv0Sx9c5shek-1" vertex="1">
                    <mxGeometry x="100" y="900" width="120" height="60" as="geometry"/>
                </mxCell>
                <mxCell id="D_eo27dGLn21yTp5IPlV-3" value="mencetak isi csv (terseleksi)" style="rounded=1;whiteSpace=wrap;html=1;" parent="HEb02cXrrv0Sx9c5shek-1" vertex="1">
                    <mxGeometry x="580" y="890" width="120" height="60" as="geometry"/>
                </mxCell>
                <mxCell id="D_eo27dGLn21yTp5IPlV-5" value="search berdasarkan id dan tahun rilis (paramter tidak harus terisi semua)" style="rounded=1;whiteSpace=wrap;html=1;" parent="HEb02cXrrv0Sx9c5shek-1" vertex="1">
                    <mxGeometry x="354" y="910" width="120" height="60" as="geometry"/>
                </mxCell>
            </root>
        </mxGraphModel>
    </diagram>
    <diagram id="UPKSUsSnQPdPAN7PQvki" name="F11">
        <mxGraphModel grid="1" gridSize="10" guides="1" tooltips="1" connect="1" arrows="1" page="1" fold="1" pageScale="1" pageWidth="827" pageHeight="1169" math="0" shadow="0">
            <root>
                <mxCell id="HouT-j2xHepia5RJSwgA-0"/>
                <mxCell id="HouT-j2xHepia5RJSwgA-1" parent="HouT-j2xHepia5RJSwgA-0"/>
                <mxCell id="d1Rd6QuIAiZyea78u-Mm-1" value="" style="edgeStyle=none;html=1;" parent="HouT-j2xHepia5RJSwgA-1" source="HouT-j2xHepia5RJSwgA-2" edge="1">
                    <mxGeometry relative="1" as="geometry">
                        <mxPoint x="430" y="160" as="targetPoint"/>
                    </mxGeometry>
                </mxCell>
                <mxCell id="HouT-j2xHepia5RJSwgA-2" value="F11 - Mencari Game di Toko dari ID, Nama Game, Harga, Kategori, dan Tahun Rilis" style="whiteSpace=wrap;html=1;rounded=0;" parent="HouT-j2xHepia5RJSwgA-1" vertex="1">
                    <mxGeometry x="370" y="20" width="120" height="80" as="geometry"/>
                </mxCell>
                <mxCell id="OzPqJtLdvggKsAOGcXJH-8" value="" style="edgeStyle=none;html=1;" parent="HouT-j2xHepia5RJSwgA-1" source="OzPqJtLdvggKsAOGcXJH-1" target="OzPqJtLdvggKsAOGcXJH-5" edge="1">
                    <mxGeometry relative="1" as="geometry"/>
                </mxCell>
                <mxCell id="OzPqJtLdvggKsAOGcXJH-1" value="input(nama_&lt;br&gt;game)" style="shape=parallelogram;perimeter=parallelogramPerimeter;whiteSpace=wrap;html=1;fixedSize=1;" parent="HouT-j2xHepia5RJSwgA-1" vertex="1">
                    <mxGeometry x="370" y="300" width="120" height="60" as="geometry"/>
                </mxCell>
                <mxCell id="OzPqJtLdvggKsAOGcXJH-7" value="" style="edgeStyle=none;html=1;" parent="HouT-j2xHepia5RJSwgA-1" source="OzPqJtLdvggKsAOGcXJH-2" target="OzPqJtLdvggKsAOGcXJH-1" edge="1">
                    <mxGeometry relative="1" as="geometry"/>
                </mxCell>
                <mxCell id="OzPqJtLdvggKsAOGcXJH-2" value="input(id_game)" style="shape=parallelogram;perimeter=parallelogramPerimeter;whiteSpace=wrap;html=1;fixedSize=1;" parent="HouT-j2xHepia5RJSwgA-1" vertex="1">
                    <mxGeometry x="370" y="170" width="120" height="60" as="geometry"/>
                </mxCell>
                <mxCell id="OzPqJtLdvggKsAOGcXJH-10" value="" style="edgeStyle=none;html=1;" parent="HouT-j2xHepia5RJSwgA-1" source="OzPqJtLdvggKsAOGcXJH-3" target="OzPqJtLdvggKsAOGcXJH-4" edge="1">
                    <mxGeometry relative="1" as="geometry"/>
                </mxCell>
                <mxCell id="OzPqJtLdvggKsAOGcXJH-3" value="input(kategori)" style="shape=parallelogram;perimeter=parallelogramPerimeter;whiteSpace=wrap;html=1;fixedSize=1;" parent="HouT-j2xHepia5RJSwgA-1" vertex="1">
                    <mxGeometry x="370" y="510" width="120" height="60" as="geometry"/>
                </mxCell>
                <mxCell id="9o3q9mehc4VWdf-R7b9s-1" value="" style="edgeStyle=none;html=1;" parent="HouT-j2xHepia5RJSwgA-1" source="OzPqJtLdvggKsAOGcXJH-4" target="9o3q9mehc4VWdf-R7b9s-0" edge="1">
                    <mxGeometry relative="1" as="geometry"/>
                </mxCell>
                <mxCell id="OzPqJtLdvggKsAOGcXJH-4" value="input(tahun_&lt;br&gt;rilis)" style="shape=parallelogram;perimeter=parallelogramPerimeter;whiteSpace=wrap;html=1;fixedSize=1;" parent="HouT-j2xHepia5RJSwgA-1" vertex="1">
                    <mxGeometry x="370" y="610" width="120" height="60" as="geometry"/>
                </mxCell>
                <mxCell id="OzPqJtLdvggKsAOGcXJH-9" value="" style="edgeStyle=none;html=1;" parent="HouT-j2xHepia5RJSwgA-1" source="OzPqJtLdvggKsAOGcXJH-5" target="OzPqJtLdvggKsAOGcXJH-3" edge="1">
                    <mxGeometry relative="1" as="geometry"/>
                </mxCell>
                <mxCell id="OzPqJtLdvggKsAOGcXJH-5" value="input(harga)" style="shape=parallelogram;perimeter=parallelogramPerimeter;whiteSpace=wrap;html=1;fixedSize=1;" parent="HouT-j2xHepia5RJSwgA-1" vertex="1">
                    <mxGeometry x="370" y="410" width="120" height="60" as="geometry"/>
                </mxCell>
                <mxCell id="9o3q9mehc4VWdf-R7b9s-0" value="daftar game yang memenuhi kriteria" style="whiteSpace=wrap;html=1;" parent="HouT-j2xHepia5RJSwgA-1" vertex="1">
                    <mxGeometry x="370" y="750" width="120" height="60" as="geometry"/>
                </mxCell>
                <mxCell id="YdbPMrA8Of4yBmHkT-Dq-3" style="edgeStyle=orthogonalEdgeStyle;html=1;entryX=0.5;entryY=0;entryDx=0;entryDy=0;" edge="1" parent="HouT-j2xHepia5RJSwgA-1" source="Bs4qo_xdHsDOsKNcjEEB-0" target="YdbPMrA8Of4yBmHkT-Dq-0">
                    <mxGeometry relative="1" as="geometry"/>
                </mxCell>
                <mxCell id="YdbPMrA8Of4yBmHkT-Dq-4" style="edgeStyle=orthogonalEdgeStyle;html=1;entryX=0.5;entryY=0;entryDx=0;entryDy=0;" edge="1" parent="HouT-j2xHepia5RJSwgA-1" source="Bs4qo_xdHsDOsKNcjEEB-0" target="YdbPMrA8Of4yBmHkT-Dq-2">
                    <mxGeometry relative="1" as="geometry"/>
                </mxCell>
                <mxCell id="YdbPMrA8Of4yBmHkT-Dq-5" style="edgeStyle=orthogonalEdgeStyle;html=1;entryX=0.5;entryY=0;entryDx=0;entryDy=0;" edge="1" parent="HouT-j2xHepia5RJSwgA-1" source="Bs4qo_xdHsDOsKNcjEEB-0" target="YdbPMrA8Of4yBmHkT-Dq-1">
                    <mxGeometry relative="1" as="geometry"/>
                </mxCell>
                <mxCell id="Bs4qo_xdHsDOsKNcjEEB-0" value="F11 - Mencari Game di Toko dari ID, Nama Game, Harga, Kategori, dan Tahun Rilis" style="whiteSpace=wrap;html=1;rounded=0;" vertex="1" parent="HouT-j2xHepia5RJSwgA-1">
                    <mxGeometry x="1220" y="150" width="120" height="80" as="geometry"/>
                </mxCell>
                <mxCell id="YdbPMrA8Of4yBmHkT-Dq-0" value="mengakses csv (game.csv)" style="rounded=1;whiteSpace=wrap;html=1;" vertex="1" parent="HouT-j2xHepia5RJSwgA-1">
                    <mxGeometry x="970" y="330" width="120" height="60" as="geometry"/>
                </mxCell>
                <mxCell id="YdbPMrA8Of4yBmHkT-Dq-1" value="mencetak isi csv (terseleksi)" style="rounded=1;whiteSpace=wrap;html=1;" vertex="1" parent="HouT-j2xHepia5RJSwgA-1">
                    <mxGeometry x="1450" y="320" width="120" height="60" as="geometry"/>
                </mxCell>
                <mxCell id="YdbPMrA8Of4yBmHkT-Dq-2" value="search berdasarkan id, nama, harga, kategori, tahun rilis (paramter tidak harus terisi semua)" style="rounded=1;whiteSpace=wrap;html=1;" vertex="1" parent="HouT-j2xHepia5RJSwgA-1">
                    <mxGeometry x="1220" y="340" width="120" height="100" as="geometry"/>
                </mxCell>
            </root>
        </mxGraphModel>
    </diagram>
    <diagram id="JbNrokiJbz4GYvme-gIn" name="F12">
        <mxGraphModel dx="1517" dy="575" grid="1" gridSize="10" guides="1" tooltips="1" connect="1" arrows="1" fold="1" page="1" pageScale="1" pageWidth="827" pageHeight="1169" math="0" shadow="0">
            <root>
                <mxCell id="SC0tWpiDvmivnVFQng2I-0"/>
                <mxCell id="SC0tWpiDvmivnVFQng2I-1" parent="SC0tWpiDvmivnVFQng2I-0"/>
                <mxCell id="c1x2smY3DUOGjUnJgA1i-2" value="" style="edgeStyle=none;html=1;" parent="SC0tWpiDvmivnVFQng2I-1" source="c1x2smY3DUOGjUnJgA1i-0" target="c1x2smY3DUOGjUnJgA1i-1" edge="1">
                    <mxGeometry relative="1" as="geometry"/>
                </mxCell>
                <mxCell id="c1x2smY3DUOGjUnJgA1i-0" value="F12 - Top Up Saldo" style="whiteSpace=wrap;html=1;rounded=0;" parent="SC0tWpiDvmivnVFQng2I-1" vertex="1">
                    <mxGeometry x="230" y="10" width="120" height="60" as="geometry"/>
                </mxCell>
                <mxCell id="c1x2smY3DUOGjUnJgA1i-6" value="" style="edgeStyle=none;html=1;" parent="SC0tWpiDvmivnVFQng2I-1" source="c1x2smY3DUOGjUnJgA1i-1" target="c1x2smY3DUOGjUnJgA1i-5" edge="1">
                    <mxGeometry relative="1" as="geometry"/>
                </mxCell>
                <mxCell id="c1x2smY3DUOGjUnJgA1i-1" value="input(username)" style="shape=parallelogram;perimeter=parallelogramPerimeter;whiteSpace=wrap;html=1;fixedSize=1;rounded=0;" parent="SC0tWpiDvmivnVFQng2I-1" vertex="1">
                    <mxGeometry x="230" y="150" width="120" height="60" as="geometry"/>
                </mxCell>
                <mxCell id="c1x2smY3DUOGjUnJgA1i-8" value="" style="edgeStyle=none;html=1;" parent="SC0tWpiDvmivnVFQng2I-1" source="c1x2smY3DUOGjUnJgA1i-5" target="c1x2smY3DUOGjUnJgA1i-7" edge="1">
                    <mxGeometry relative="1" as="geometry"/>
                </mxCell>
                <mxCell id="c1x2smY3DUOGjUnJgA1i-5" value="input(saldo)" style="shape=parallelogram;perimeter=parallelogramPerimeter;whiteSpace=wrap;html=1;fixedSize=1;rounded=0;" parent="SC0tWpiDvmivnVFQng2I-1" vertex="1">
                    <mxGeometry x="230" y="290" width="120" height="60" as="geometry"/>
                </mxCell>
                <mxCell id="IehIb6lKy9hc-znRWHxA-1" value="" style="edgeStyle=none;html=1;" parent="SC0tWpiDvmivnVFQng2I-1" source="c1x2smY3DUOGjUnJgA1i-7" target="IehIb6lKy9hc-znRWHxA-0" edge="1">
                    <mxGeometry relative="1" as="geometry"/>
                </mxCell>
                <mxCell id="IehIb6lKy9hc-znRWHxA-4" value="" style="edgeStyle=none;html=1;" parent="SC0tWpiDvmivnVFQng2I-1" source="c1x2smY3DUOGjUnJgA1i-7" target="IehIb6lKy9hc-znRWHxA-3" edge="1">
                    <mxGeometry relative="1" as="geometry"/>
                </mxCell>
                <mxCell id="c1x2smY3DUOGjUnJgA1i-7" value="Apakah username benar?" style="rhombus;whiteSpace=wrap;html=1;rounded=0;" parent="SC0tWpiDvmivnVFQng2I-1" vertex="1">
                    <mxGeometry x="190" y="420" width="200" height="110" as="geometry"/>
                </mxCell>
                <mxCell id="IehIb6lKy9hc-znRWHxA-0" value="pesan eror" style="whiteSpace=wrap;html=1;rounded=0;" parent="SC0tWpiDvmivnVFQng2I-1" vertex="1">
                    <mxGeometry x="-50" y="445" width="120" height="60" as="geometry"/>
                </mxCell>
                <mxCell id="IehIb6lKy9hc-znRWHxA-2" value="tidak" style="text;html=1;strokeColor=none;fillColor=none;align=center;verticalAlign=middle;whiteSpace=wrap;rounded=0;" parent="SC0tWpiDvmivnVFQng2I-1" vertex="1">
                    <mxGeometry x="110" y="445" width="60" height="30" as="geometry"/>
                </mxCell>
                <mxCell id="IehIb6lKy9hc-znRWHxA-7" value="" style="edgeStyle=none;html=1;" parent="SC0tWpiDvmivnVFQng2I-1" source="IehIb6lKy9hc-znRWHxA-3" target="IehIb6lKy9hc-znRWHxA-6" edge="1">
                    <mxGeometry relative="1" as="geometry"/>
                </mxCell>
                <mxCell id="IehIb6lKy9hc-znRWHxA-9" value="" style="edgeStyle=none;html=1;" parent="SC0tWpiDvmivnVFQng2I-1" source="IehIb6lKy9hc-znRWHxA-3" target="IehIb6lKy9hc-znRWHxA-8" edge="1">
                    <mxGeometry relative="1" as="geometry"/>
                </mxCell>
                <mxCell id="IehIb6lKy9hc-znRWHxA-3" value="apakah saldo &amp;gt;0?" style="rhombus;whiteSpace=wrap;html=1;rounded=0;" parent="SC0tWpiDvmivnVFQng2I-1" vertex="1">
                    <mxGeometry x="530" y="420" width="180" height="110" as="geometry"/>
                </mxCell>
                <mxCell id="IehIb6lKy9hc-znRWHxA-5" value="ya" style="text;html=1;strokeColor=none;fillColor=none;align=center;verticalAlign=middle;whiteSpace=wrap;rounded=0;" parent="SC0tWpiDvmivnVFQng2I-1" vertex="1">
                    <mxGeometry x="414" y="445" width="60" height="30" as="geometry"/>
                </mxCell>
                <mxCell id="IehIb6lKy9hc-znRWHxA-6" value="pesan eror" style="whiteSpace=wrap;html=1;rounded=0;" parent="SC0tWpiDvmivnVFQng2I-1" vertex="1">
                    <mxGeometry x="820" y="445" width="120" height="60" as="geometry"/>
                </mxCell>
                <mxCell id="IehIb6lKy9hc-znRWHxA-8" value="Topup berhasil" style="whiteSpace=wrap;html=1;rounded=0;" parent="SC0tWpiDvmivnVFQng2I-1" vertex="1">
                    <mxGeometry x="560" y="635" width="120" height="60" as="geometry"/>
                </mxCell>
                <mxCell id="IehIb6lKy9hc-znRWHxA-10" value="tidak" style="text;html=1;strokeColor=none;fillColor=none;align=center;verticalAlign=middle;whiteSpace=wrap;rounded=0;" parent="SC0tWpiDvmivnVFQng2I-1" vertex="1">
                    <mxGeometry x="740" y="450" width="60" height="30" as="geometry"/>
                </mxCell>
                <mxCell id="IehIb6lKy9hc-znRWHxA-11" value="ya" style="text;html=1;strokeColor=none;fillColor=none;align=center;verticalAlign=middle;whiteSpace=wrap;rounded=0;rotation=90;" parent="SC0tWpiDvmivnVFQng2I-1" vertex="1">
                    <mxGeometry x="610" y="560" width="60" height="30" as="geometry"/>
                </mxCell>
                <mxCell id="7Cf0rUhn2nV_3DKR-Vop-3" value="" style="edgeStyle=orthogonalEdgeStyle;html=1;" parent="SC0tWpiDvmivnVFQng2I-1" source="7Cf0rUhn2nV_3DKR-Vop-1" target="7Cf0rUhn2nV_3DKR-Vop-2" edge="1">
                    <mxGeometry relative="1" as="geometry"/>
                </mxCell>
                <mxCell id="7Cf0rUhn2nV_3DKR-Vop-5" value="" style="edgeStyle=orthogonalEdgeStyle;html=1;" parent="SC0tWpiDvmivnVFQng2I-1" source="7Cf0rUhn2nV_3DKR-Vop-1" target="7Cf0rUhn2nV_3DKR-Vop-4" edge="1">
                    <mxGeometry relative="1" as="geometry"/>
                </mxCell>
                <mxCell id="7Cf0rUhn2nV_3DKR-Vop-7" value="" style="edgeStyle=orthogonalEdgeStyle;html=1;" parent="SC0tWpiDvmivnVFQng2I-1" source="7Cf0rUhn2nV_3DKR-Vop-1" target="7Cf0rUhn2nV_3DKR-Vop-6" edge="1">
                    <mxGeometry relative="1" as="geometry"/>
                </mxCell>
                <mxCell id="7Cf0rUhn2nV_3DKR-Vop-1" value="F12 - Top Up Saldo" style="whiteSpace=wrap;html=1;rounded=0;" parent="SC0tWpiDvmivnVFQng2I-1" vertex="1">
                    <mxGeometry x="1250" y="110" width="120" height="60" as="geometry"/>
                </mxCell>
                <mxCell id="7Cf0rUhn2nV_3DKR-Vop-2" value="input nama dan saldo" style="whiteSpace=wrap;html=1;rounded=0;" parent="SC0tWpiDvmivnVFQng2I-1" vertex="1">
                    <mxGeometry x="1080" y="250" width="120" height="60" as="geometry"/>
                </mxCell>
                <mxCell id="7Cf0rUhn2nV_3DKR-Vop-4" value="validasi saldo&lt;br&gt;&amp;nbsp;(hasil akhir pengubahan saldo tidak negatif)" style="whiteSpace=wrap;html=1;rounded=0;" parent="SC0tWpiDvmivnVFQng2I-1" vertex="1">
                    <mxGeometry x="1250" y="250" width="120" height="90" as="geometry"/>
                </mxCell>
                <mxCell id="7Cf0rUhn2nV_3DKR-Vop-6" value="pencarian username yang valid" style="whiteSpace=wrap;html=1;rounded=0;" parent="SC0tWpiDvmivnVFQng2I-1" vertex="1">
                    <mxGeometry x="1450" y="230" width="120" height="60" as="geometry"/>
                </mxCell>
            </root>
        </mxGraphModel>
    </diagram>
    <diagram id="fAOVeiuPg4fhsWmWGxQD" name="F13">
        <mxGraphModel dx="690" dy="575" grid="1" gridSize="10" guides="1" tooltips="1" connect="1" arrows="1" fold="1" page="1" pageScale="1" pageWidth="827" pageHeight="1169" math="0" shadow="0">
            <root>
                <mxCell id="ffarNwJQhYX5pliz0qBU-0"/>
                <mxCell id="ffarNwJQhYX5pliz0qBU-1" parent="ffarNwJQhYX5pliz0qBU-0"/>
                <mxCell id="ewv2FWHrJjLih2dTBfSD-2" value="" style="edgeStyle=none;html=1;" parent="ffarNwJQhYX5pliz0qBU-1" source="ewv2FWHrJjLih2dTBfSD-0" target="ewv2FWHrJjLih2dTBfSD-1" edge="1">
                    <mxGeometry relative="1" as="geometry"/>
                </mxCell>
                <mxCell id="ewv2FWHrJjLih2dTBfSD-0" value="F13 - Melihat Riwayat Pembelian" style="whiteSpace=wrap;html=1;rounded=0;" parent="ffarNwJQhYX5pliz0qBU-1" vertex="1">
                    <mxGeometry x="354" y="10" width="120" height="60" as="geometry"/>
                </mxCell>
                <mxCell id="ewv2FWHrJjLih2dTBfSD-6" value="" style="edgeStyle=none;html=1;" parent="ffarNwJQhYX5pliz0qBU-1" source="ewv2FWHrJjLih2dTBfSD-1" target="ewv2FWHrJjLih2dTBfSD-5" edge="1">
                    <mxGeometry relative="1" as="geometry"/>
                </mxCell>
                <mxCell id="ewv2FWHrJjLih2dTBfSD-9" value="" style="edgeStyle=none;html=1;" parent="ffarNwJQhYX5pliz0qBU-1" source="ewv2FWHrJjLih2dTBfSD-1" target="ewv2FWHrJjLih2dTBfSD-8" edge="1">
                    <mxGeometry relative="1" as="geometry"/>
                </mxCell>
                <mxCell id="ewv2FWHrJjLih2dTBfSD-1" value="Apakah user pernah &lt;br&gt;melakukan pembelian?" style="rhombus;whiteSpace=wrap;html=1;rounded=0;" parent="ffarNwJQhYX5pliz0qBU-1" vertex="1">
                    <mxGeometry x="320" y="140" width="190" height="100" as="geometry"/>
                </mxCell>
                <mxCell id="ewv2FWHrJjLih2dTBfSD-5" value="pesan khusus" style="whiteSpace=wrap;html=1;rounded=0;" parent="ffarNwJQhYX5pliz0qBU-1" vertex="1">
                    <mxGeometry x="85" y="160" width="120" height="60" as="geometry"/>
                </mxCell>
                <mxCell id="ewv2FWHrJjLih2dTBfSD-7" value="tidak" style="text;html=1;strokeColor=none;fillColor=none;align=center;verticalAlign=middle;whiteSpace=wrap;rounded=0;" parent="ffarNwJQhYX5pliz0qBU-1" vertex="1">
                    <mxGeometry x="230" y="160" width="60" height="30" as="geometry"/>
                </mxCell>
                <mxCell id="ewv2FWHrJjLih2dTBfSD-8" value="tampilan riwayat pembelian" style="rounded=0;whiteSpace=wrap;html=1;" parent="ffarNwJQhYX5pliz0qBU-1" vertex="1">
                    <mxGeometry x="355" y="340" width="120" height="60" as="geometry"/>
                </mxCell>
                <mxCell id="ewv2FWHrJjLih2dTBfSD-10" value="ya" style="text;html=1;strokeColor=none;fillColor=none;align=center;verticalAlign=middle;whiteSpace=wrap;rounded=0;rotation=-90;" parent="ffarNwJQhYX5pliz0qBU-1" vertex="1">
                    <mxGeometry x="370" y="270" width="60" height="30" as="geometry"/>
                </mxCell>
                <mxCell id="J8OiVIhE_pq6uVafNYyu-2" value="" style="edgeStyle=orthogonalEdgeStyle;html=1;" parent="ffarNwJQhYX5pliz0qBU-1" source="J8OiVIhE_pq6uVafNYyu-0" target="J8OiVIhE_pq6uVafNYyu-1" edge="1">
                    <mxGeometry relative="1" as="geometry"/>
                </mxCell>
                <mxCell id="J8OiVIhE_pq6uVafNYyu-4" value="" style="edgeStyle=orthogonalEdgeStyle;html=1;" parent="ffarNwJQhYX5pliz0qBU-1" source="J8OiVIhE_pq6uVafNYyu-0" target="J8OiVIhE_pq6uVafNYyu-3" edge="1">
                    <mxGeometry relative="1" as="geometry"/>
                </mxCell>
                <mxCell id="J8OiVIhE_pq6uVafNYyu-0" value="F13 - Melihat Riwayat Pembelian" style="whiteSpace=wrap;html=1;rounded=0;" parent="ffarNwJQhYX5pliz0qBU-1" vertex="1">
                    <mxGeometry x="354" y="540" width="120" height="60" as="geometry"/>
                </mxCell>
                <mxCell id="J8OiVIhE_pq6uVafNYyu-1" value="mengakses csv&amp;nbsp;&lt;br&gt;(riwayat.csv)" style="whiteSpace=wrap;html=1;rounded=0;" parent="ffarNwJQhYX5pliz0qBU-1" vertex="1">
                    <mxGeometry x="70" y="680" width="120" height="60" as="geometry"/>
                </mxCell>
                <mxCell id="J8OiVIhE_pq6uVafNYyu-3" value="menampilkan csv&lt;br&gt;(menampilkan pesan jika csv kosong)" style="whiteSpace=wrap;html=1;rounded=0;" parent="ffarNwJQhYX5pliz0qBU-1" vertex="1">
                    <mxGeometry x="354" y="680" width="120" height="60" as="geometry"/>
                </mxCell>
            </root>
        </mxGraphModel>
    </diagram>
    <diagram id="qxG3dwhk250U9Bahz25l" name="F14">
        <mxGraphModel dx="690" dy="575" grid="1" gridSize="10" guides="1" tooltips="1" connect="1" arrows="1" fold="1" page="1" pageScale="1" pageWidth="827" pageHeight="1169" math="0" shadow="0">
            <root>
                <mxCell id="EjeM_SJ1fAEN34OPa7tP-0"/>
                <mxCell id="EjeM_SJ1fAEN34OPa7tP-1" parent="EjeM_SJ1fAEN34OPa7tP-0"/>
                <mxCell id="5oAVxVpkFQ2guiCENI55-1" value="" style="edgeStyle=orthogonalEdgeStyle;html=1;" parent="EjeM_SJ1fAEN34OPa7tP-1" source="Blv_OUOX1dY_ajMlBS6x-0" target="5oAVxVpkFQ2guiCENI55-0" edge="1">
                    <mxGeometry relative="1" as="geometry"/>
                </mxCell>
                <mxCell id="5oAVxVpkFQ2guiCENI55-3" value="" style="edgeStyle=orthogonalEdgeStyle;html=1;" parent="EjeM_SJ1fAEN34OPa7tP-1" source="Blv_OUOX1dY_ajMlBS6x-0" target="5oAVxVpkFQ2guiCENI55-2" edge="1">
                    <mxGeometry relative="1" as="geometry"/>
                </mxCell>
                <mxCell id="Blv_OUOX1dY_ajMlBS6x-0" value="F14 - Help" style="whiteSpace=wrap;html=1;rounded=0;" parent="EjeM_SJ1fAEN34OPa7tP-1" vertex="1">
                    <mxGeometry x="360" y="10" width="120" height="50" as="geometry"/>
                </mxCell>
                <mxCell id="5oAVxVpkFQ2guiCENI55-0" value="output fungsi yang hanya bisa diakses admin" style="whiteSpace=wrap;html=1;rounded=0;" parent="EjeM_SJ1fAEN34OPa7tP-1" vertex="1">
                    <mxGeometry x="150" y="170" width="120" height="60" as="geometry"/>
                </mxCell>
                <mxCell id="5oAVxVpkFQ2guiCENI55-2" value="output fungsi yang hanya bisa diakses user" style="whiteSpace=wrap;html=1;rounded=0;" parent="EjeM_SJ1fAEN34OPa7tP-1" vertex="1">
                    <mxGeometry x="570" y="170" width="120" height="60" as="geometry"/>
                </mxCell>
                <mxCell id="5oAVxVpkFQ2guiCENI55-4" value="user" style="text;html=1;strokeColor=none;fillColor=none;align=center;verticalAlign=middle;whiteSpace=wrap;rounded=0;" parent="EjeM_SJ1fAEN34OPa7tP-1" vertex="1">
                    <mxGeometry x="510" y="30" width="60" height="30" as="geometry"/>
                </mxCell>
                <mxCell id="5oAVxVpkFQ2guiCENI55-5" value="admin" style="text;html=1;strokeColor=none;fillColor=none;align=center;verticalAlign=middle;whiteSpace=wrap;rounded=0;" parent="EjeM_SJ1fAEN34OPa7tP-1" vertex="1">
                    <mxGeometry x="260" y="30" width="60" height="30" as="geometry"/>
                </mxCell>
            </root>
        </mxGraphModel>
    </diagram>
    <diagram id="mZzVcCOjo49IIoHNq1rT" name="F15">
        <mxGraphModel dx="690" dy="575" grid="1" gridSize="10" guides="1" tooltips="1" connect="1" arrows="1" fold="1" page="1" pageScale="1" pageWidth="827" pageHeight="1169" math="0" shadow="0">
            <root>
                <mxCell id="6ePOWkCuwlq97ls8OuYI-0"/>
                <mxCell id="6ePOWkCuwlq97ls8OuYI-1" parent="6ePOWkCuwlq97ls8OuYI-0"/>
                <mxCell id="1pMGPjg10tg-pu__dSxg-2" value="" style="edgeStyle=none;html=1;" parent="6ePOWkCuwlq97ls8OuYI-1" source="1pMGPjg10tg-pu__dSxg-0" target="1pMGPjg10tg-pu__dSxg-1" edge="1">
                    <mxGeometry relative="1" as="geometry"/>
                </mxCell>
                <mxCell id="1pMGPjg10tg-pu__dSxg-0" value="Start" style="rounded=1;whiteSpace=wrap;html=1;" parent="6ePOWkCuwlq97ls8OuYI-1" vertex="1">
                    <mxGeometry x="210" y="30" width="120" height="60" as="geometry"/>
                </mxCell>
                <mxCell id="1pMGPjg10tg-pu__dSxg-6" value="" style="edgeStyle=none;html=1;" parent="6ePOWkCuwlq97ls8OuYI-1" source="1pMGPjg10tg-pu__dSxg-1" target="1pMGPjg10tg-pu__dSxg-5" edge="1">
                    <mxGeometry relative="1" as="geometry"/>
                </mxCell>
                <mxCell id="1pMGPjg10tg-pu__dSxg-1" value="input(nama_folder)" style="shape=parallelogram;perimeter=parallelogramPerimeter;whiteSpace=wrap;html=1;fixedSize=1;rounded=0;" parent="6ePOWkCuwlq97ls8OuYI-1" vertex="1">
                    <mxGeometry x="200" y="140" width="140" height="60" as="geometry"/>
                </mxCell>
                <mxCell id="1pMGPjg10tg-pu__dSxg-12" value="" style="edgeStyle=none;html=1;" parent="6ePOWkCuwlq97ls8OuYI-1" source="1pMGPjg10tg-pu__dSxg-5" target="1pMGPjg10tg-pu__dSxg-11" edge="1">
                    <mxGeometry relative="1" as="geometry"/>
                </mxCell>
                <mxCell id="1pMGPjg10tg-pu__dSxg-17" style="edgeStyle=none;html=1;exitX=0;exitY=0.5;exitDx=0;exitDy=0;entryX=0;entryY=0.5;entryDx=0;entryDy=0;" parent="6ePOWkCuwlq97ls8OuYI-1" source="1pMGPjg10tg-pu__dSxg-5" target="1pMGPjg10tg-pu__dSxg-14" edge="1">
                    <mxGeometry relative="1" as="geometry">
                        <Array as="points">
                            <mxPoint x="100" y="300"/>
                            <mxPoint x="100" y="640"/>
                        </Array>
                    </mxGeometry>
                </mxCell>
                <mxCell id="1pMGPjg10tg-pu__dSxg-5" value="Apakah nama_folder ada?" style="rhombus;whiteSpace=wrap;html=1;rounded=0;" parent="6ePOWkCuwlq97ls8OuYI-1" vertex="1">
                    <mxGeometry x="160" y="260" width="220" height="80" as="geometry"/>
                </mxCell>
                <mxCell id="1pMGPjg10tg-pu__dSxg-15" value="" style="edgeStyle=none;html=1;" parent="6ePOWkCuwlq97ls8OuYI-1" source="1pMGPjg10tg-pu__dSxg-7" target="1pMGPjg10tg-pu__dSxg-14" edge="1">
                    <mxGeometry relative="1" as="geometry"/>
                </mxCell>
                <mxCell id="1pMGPjg10tg-pu__dSxg-7" value="F15 - Load" style="whiteSpace=wrap;html=1;rounded=0;" parent="6ePOWkCuwlq97ls8OuYI-1" vertex="1">
                    <mxGeometry x="210" y="490" width="120" height="60" as="geometry"/>
                </mxCell>
                <mxCell id="1pMGPjg10tg-pu__dSxg-19" value="" style="edgeStyle=none;html=1;" parent="6ePOWkCuwlq97ls8OuYI-1" source="1pMGPjg10tg-pu__dSxg-10" target="1pMGPjg10tg-pu__dSxg-18" edge="1">
                    <mxGeometry relative="1" as="geometry"/>
                </mxCell>
                <mxCell id="1pMGPjg10tg-pu__dSxg-10" value="F15 - Load" style="rounded=1;whiteSpace=wrap;html=1;" parent="6ePOWkCuwlq97ls8OuYI-1" vertex="1">
                    <mxGeometry x="600" y="30" width="120" height="60" as="geometry"/>
                </mxCell>
                <mxCell id="1pMGPjg10tg-pu__dSxg-13" style="edgeStyle=none;html=1;exitX=0.5;exitY=1;exitDx=0;exitDy=0;entryX=0.5;entryY=0;entryDx=0;entryDy=0;" parent="6ePOWkCuwlq97ls8OuYI-1" source="1pMGPjg10tg-pu__dSxg-11" target="1pMGPjg10tg-pu__dSxg-7" edge="1">
                    <mxGeometry relative="1" as="geometry"/>
                </mxCell>
                <mxCell id="1pMGPjg10tg-pu__dSxg-11" value="output(&quot;Loading...&quot;)" style="shape=parallelogram;perimeter=parallelogramPerimeter;whiteSpace=wrap;html=1;fixedSize=1;rounded=0;" parent="6ePOWkCuwlq97ls8OuYI-1" vertex="1">
                    <mxGeometry x="200" y="390" width="140" height="60" as="geometry"/>
                </mxCell>
                <mxCell id="1pMGPjg10tg-pu__dSxg-14" value="Stop" style="whiteSpace=wrap;html=1;rounded=1;" parent="6ePOWkCuwlq97ls8OuYI-1" vertex="1">
                    <mxGeometry x="210" y="610" width="120" height="60" as="geometry"/>
                </mxCell>
                <mxCell id="1pMGPjg10tg-pu__dSxg-16" value="Ada" style="text;html=1;align=center;verticalAlign=middle;resizable=0;points=[];autosize=1;strokeColor=none;fillColor=none;" parent="6ePOWkCuwlq97ls8OuYI-1" vertex="1">
                    <mxGeometry x="270" y="350" width="40" height="20" as="geometry"/>
                </mxCell>
                <mxCell id="1pMGPjg10tg-pu__dSxg-21" value="" style="edgeStyle=none;html=1;" parent="6ePOWkCuwlq97ls8OuYI-1" source="1pMGPjg10tg-pu__dSxg-18" target="1pMGPjg10tg-pu__dSxg-20" edge="1">
                    <mxGeometry relative="1" as="geometry"/>
                </mxCell>
                <mxCell id="1pMGPjg10tg-pu__dSxg-18" value="output(&quot;Selamat datang di antarmuka Binomo&quot;)" style="shape=parallelogram;perimeter=parallelogramPerimeter;whiteSpace=wrap;html=1;fixedSize=1;rounded=0;" parent="6ePOWkCuwlq97ls8OuYI-1" vertex="1">
                    <mxGeometry x="570" y="170" width="180" height="60" as="geometry"/>
                </mxCell>
                <mxCell id="1pMGPjg10tg-pu__dSxg-23" value="" style="edgeStyle=none;html=1;entryX=0.5;entryY=0;entryDx=0;entryDy=0;" parent="6ePOWkCuwlq97ls8OuYI-1" source="1pMGPjg10tg-pu__dSxg-20" target="1pMGPjg10tg-pu__dSxg-24" edge="1">
                    <mxGeometry relative="1" as="geometry">
                        <mxPoint x="660" y="420" as="targetPoint"/>
                    </mxGeometry>
                </mxCell>
                <mxCell id="1pMGPjg10tg-pu__dSxg-20" value="input(modul)" style="shape=parallelogram;perimeter=parallelogramPerimeter;whiteSpace=wrap;html=1;fixedSize=1;rounded=0;" parent="6ePOWkCuwlq97ls8OuYI-1" vertex="1">
                    <mxGeometry x="570" y="280" width="180" height="60" as="geometry"/>
                </mxCell>
                <mxCell id="1pMGPjg10tg-pu__dSxg-24" value="Return" style="rounded=1;whiteSpace=wrap;html=1;" parent="6ePOWkCuwlq97ls8OuYI-1" vertex="1">
                    <mxGeometry x="600" y="400" width="120" height="60" as="geometry"/>
                </mxCell>
            </root>
        </mxGraphModel>
    </diagram>
    <diagram id="gKoWlaQjpBKfH01BLYc_" name="F16">
        <mxGraphModel dx="690" dy="575" grid="1" gridSize="10" guides="1" tooltips="1" connect="1" arrows="1" fold="1" page="1" pageScale="1" pageWidth="827" pageHeight="1169" math="0" shadow="0">
            <root>
                <mxCell id="Els3-EWmk1SxJnoiP728-0"/>
                <mxCell id="Els3-EWmk1SxJnoiP728-1" parent="Els3-EWmk1SxJnoiP728-0"/>
                <mxCell id="0fNXDDILsy7Mui3KXv1u-2" value="" style="edgeStyle=none;html=1;" parent="Els3-EWmk1SxJnoiP728-1" source="0fNXDDILsy7Mui3KXv1u-0" target="0fNXDDILsy7Mui3KXv1u-1" edge="1">
                    <mxGeometry relative="1" as="geometry"/>
                </mxCell>
                <mxCell id="0fNXDDILsy7Mui3KXv1u-0" value="F16 - Save" style="rounded=1;whiteSpace=wrap;html=1;" parent="Els3-EWmk1SxJnoiP728-1" vertex="1">
                    <mxGeometry x="354" y="40" width="120" height="60" as="geometry"/>
                </mxCell>
                <mxCell id="0fNXDDILsy7Mui3KXv1u-4" value="" style="edgeStyle=none;html=1;" parent="Els3-EWmk1SxJnoiP728-1" source="0fNXDDILsy7Mui3KXv1u-1" target="0fNXDDILsy7Mui3KXv1u-3" edge="1">
                    <mxGeometry relative="1" as="geometry"/>
                </mxCell>
                <mxCell id="0fNXDDILsy7Mui3KXv1u-1" value="input(nama_folder)" style="shape=parallelogram;perimeter=parallelogramPerimeter;whiteSpace=wrap;html=1;fixedSize=1;rounded=0;" parent="Els3-EWmk1SxJnoiP728-1" vertex="1">
                    <mxGeometry x="350" y="150" width="128" height="60" as="geometry"/>
                </mxCell>
                <mxCell id="0fNXDDILsy7Mui3KXv1u-6" value="" style="edgeStyle=none;html=1;" parent="Els3-EWmk1SxJnoiP728-1" source="0fNXDDILsy7Mui3KXv1u-3" target="0fNXDDILsy7Mui3KXv1u-5" edge="1">
                    <mxGeometry relative="1" as="geometry">
                        <Array as="points">
                            <mxPoint x="240" y="300"/>
                        </Array>
                    </mxGeometry>
                </mxCell>
                <mxCell id="0fNXDDILsy7Mui3KXv1u-8" value="" style="edgeStyle=none;html=1;" parent="Els3-EWmk1SxJnoiP728-1" source="0fNXDDILsy7Mui3KXv1u-3" target="0fNXDDILsy7Mui3KXv1u-7" edge="1">
                    <mxGeometry relative="1" as="geometry">
                        <Array as="points">
                            <mxPoint x="600" y="300"/>
                        </Array>
                    </mxGeometry>
                </mxCell>
                <mxCell id="0fNXDDILsy7Mui3KXv1u-3" value="nama_folder sudah ada" style="rhombus;whiteSpace=wrap;html=1;rounded=0;" parent="Els3-EWmk1SxJnoiP728-1" vertex="1">
                    <mxGeometry x="328" y="260" width="172" height="80" as="geometry"/>
                </mxCell>
                <mxCell id="0fNXDDILsy7Mui3KXv1u-10" style="edgeStyle=none;html=1;exitX=0.5;exitY=1;exitDx=0;exitDy=0;entryX=0;entryY=0.5;entryDx=0;entryDy=0;" parent="Els3-EWmk1SxJnoiP728-1" source="0fNXDDILsy7Mui3KXv1u-5" target="0fNXDDILsy7Mui3KXv1u-9" edge="1">
                    <mxGeometry relative="1" as="geometry">
                        <Array as="points">
                            <mxPoint x="240" y="530"/>
                        </Array>
                    </mxGeometry>
                </mxCell>
                <mxCell id="0fNXDDILsy7Mui3KXv1u-5" value="Buat folder baru dan simpan file csv" style="whiteSpace=wrap;html=1;rounded=0;" parent="Els3-EWmk1SxJnoiP728-1" vertex="1">
                    <mxGeometry x="180" y="390" width="120" height="60" as="geometry"/>
                </mxCell>
                <mxCell id="0fNXDDILsy7Mui3KXv1u-11" style="edgeStyle=none;html=1;exitX=0.5;exitY=1;exitDx=0;exitDy=0;entryX=1;entryY=0.5;entryDx=0;entryDy=0;" parent="Els3-EWmk1SxJnoiP728-1" source="0fNXDDILsy7Mui3KXv1u-7" target="0fNXDDILsy7Mui3KXv1u-9" edge="1">
                    <mxGeometry relative="1" as="geometry">
                        <Array as="points">
                            <mxPoint x="600" y="530"/>
                        </Array>
                    </mxGeometry>
                </mxCell>
                <mxCell id="0fNXDDILsy7Mui3KXv1u-7" value="Hapus folder dan buat folder baru. Simpan csv ke folder baru" style="whiteSpace=wrap;html=1;rounded=0;" parent="Els3-EWmk1SxJnoiP728-1" vertex="1">
                    <mxGeometry x="540" y="390" width="120" height="60" as="geometry"/>
                </mxCell>
                <mxCell id="0fNXDDILsy7Mui3KXv1u-9" value="Return" style="rounded=1;whiteSpace=wrap;html=1;glass=0;" parent="Els3-EWmk1SxJnoiP728-1" vertex="1">
                    <mxGeometry x="354" y="500" width="120" height="60" as="geometry"/>
                </mxCell>
            </root>
        </mxGraphModel>
    </diagram>
    <diagram id="8OmklCyD2EdupA0FtPM0" name="F17">
        <mxGraphModel dx="657" dy="313" grid="1" gridSize="10" guides="1" tooltips="1" connect="1" arrows="1" fold="1" page="1" pageScale="1" pageWidth="827" pageHeight="1169" math="0" shadow="0">
            <root>
                <mxCell id="4DQSS5wWc3C-hE0lLYTg-0"/>
                <mxCell id="4DQSS5wWc3C-hE0lLYTg-1" parent="4DQSS5wWc3C-hE0lLYTg-0"/>
                <mxCell id="XHWrE6tJUGV-1KRo5ZIE-3" value="" style="edgeStyle=none;html=1;" edge="1" parent="4DQSS5wWc3C-hE0lLYTg-1" source="XHWrE6tJUGV-1KRo5ZIE-1" target="XHWrE6tJUGV-1KRo5ZIE-2">
                    <mxGeometry relative="1" as="geometry"/>
                </mxCell>
                <mxCell id="XHWrE6tJUGV-1KRo5ZIE-1" value="F17 exit" style="ellipse;whiteSpace=wrap;html=1;" vertex="1" parent="4DQSS5wWc3C-hE0lLYTg-1">
                    <mxGeometry x="370" y="120" width="120" height="80" as="geometry"/>
                </mxCell>
                <mxCell id="XHWrE6tJUGV-1KRo5ZIE-5" value="" style="edgeStyle=none;html=1;" edge="1" parent="4DQSS5wWc3C-hE0lLYTg-1" source="XHWrE6tJUGV-1KRo5ZIE-2" target="XHWrE6tJUGV-1KRo5ZIE-4">
                    <mxGeometry relative="1" as="geometry"/>
                </mxCell>
                <mxCell id="XHWrE6tJUGV-1KRo5ZIE-2" value="menanyakan apakah ingin save" style="whiteSpace=wrap;html=1;" vertex="1" parent="4DQSS5wWc3C-hE0lLYTg-1">
                    <mxGeometry x="370" y="240" width="120" height="60" as="geometry"/>
                </mxCell>
                <mxCell id="XHWrE6tJUGV-1KRo5ZIE-6" style="edgeStyle=orthogonalEdgeStyle;html=1;entryX=1;entryY=0.5;entryDx=0;entryDy=0;exitX=1;exitY=0.5;exitDx=0;exitDy=0;" edge="1" parent="4DQSS5wWc3C-hE0lLYTg-1" source="XHWrE6tJUGV-1KRo5ZIE-4" target="XHWrE6tJUGV-1KRo5ZIE-2">
                    <mxGeometry relative="1" as="geometry">
                        <Array as="points">
                            <mxPoint x="600" y="380"/>
                            <mxPoint x="600" y="270"/>
                        </Array>
                    </mxGeometry>
                </mxCell>
                <mxCell id="XHWrE6tJUGV-1KRo5ZIE-10" value="yes" style="edgeStyle=orthogonalEdgeStyle;html=1;" edge="1" parent="4DQSS5wWc3C-hE0lLYTg-1" source="XHWrE6tJUGV-1KRo5ZIE-4" target="XHWrE6tJUGV-1KRo5ZIE-9">
                    <mxGeometry relative="1" as="geometry"/>
                </mxCell>
                <mxCell id="XHWrE6tJUGV-1KRo5ZIE-13" value="no" style="edgeStyle=orthogonalEdgeStyle;html=1;entryX=0;entryY=0.5;entryDx=0;entryDy=0;" edge="1" parent="4DQSS5wWc3C-hE0lLYTg-1" source="XHWrE6tJUGV-1KRo5ZIE-4" target="XHWrE6tJUGV-1KRo5ZIE-11">
                    <mxGeometry relative="1" as="geometry">
                        <Array as="points">
                            <mxPoint x="330" y="380"/>
                            <mxPoint x="330" y="585"/>
                        </Array>
                    </mxGeometry>
                </mxCell>
                <mxCell id="XHWrE6tJUGV-1KRo5ZIE-4" value="validasi input" style="rhombus;whiteSpace=wrap;html=1;" vertex="1" parent="4DQSS5wWc3C-hE0lLYTg-1">
                    <mxGeometry x="390" y="340" width="80" height="80" as="geometry"/>
                </mxCell>
                <mxCell id="XHWrE6tJUGV-1KRo5ZIE-12" value="" style="edgeStyle=orthogonalEdgeStyle;html=1;" edge="1" parent="4DQSS5wWc3C-hE0lLYTg-1" source="XHWrE6tJUGV-1KRo5ZIE-9" target="XHWrE6tJUGV-1KRo5ZIE-11">
                    <mxGeometry relative="1" as="geometry"/>
                </mxCell>
                <mxCell id="XHWrE6tJUGV-1KRo5ZIE-9" value="save" style="shape=process;whiteSpace=wrap;html=1;backgroundOutline=1;" vertex="1" parent="4DQSS5wWc3C-hE0lLYTg-1">
                    <mxGeometry x="370" y="450" width="120" height="60" as="geometry"/>
                </mxCell>
                <mxCell id="XHWrE6tJUGV-1KRo5ZIE-15" value="" style="edgeStyle=orthogonalEdgeStyle;html=1;" edge="1" parent="4DQSS5wWc3C-hE0lLYTg-1" source="XHWrE6tJUGV-1KRo5ZIE-11" target="XHWrE6tJUGV-1KRo5ZIE-14">
                    <mxGeometry relative="1" as="geometry"/>
                </mxCell>
                <mxCell id="XHWrE6tJUGV-1KRo5ZIE-11" value="keluar dari program" style="whiteSpace=wrap;html=1;" vertex="1" parent="4DQSS5wWc3C-hE0lLYTg-1">
                    <mxGeometry x="370" y="555" width="120" height="60" as="geometry"/>
                </mxCell>
                <mxCell id="XHWrE6tJUGV-1KRo5ZIE-14" value="end" style="ellipse;whiteSpace=wrap;html=1;" vertex="1" parent="4DQSS5wWc3C-hE0lLYTg-1">
                    <mxGeometry x="370" y="650" width="120" height="60" as="geometry"/>
                </mxCell>
                <mxCell id="XHWrE6tJUGV-1KRo5ZIE-18" value="" style="edgeStyle=orthogonalEdgeStyle;html=1;" edge="1" parent="4DQSS5wWc3C-hE0lLYTg-1" source="XHWrE6tJUGV-1KRo5ZIE-16" target="XHWrE6tJUGV-1KRo5ZIE-17">
                    <mxGeometry relative="1" as="geometry"/>
                </mxCell>
                <mxCell id="XHWrE6tJUGV-1KRo5ZIE-20" value="" style="edgeStyle=orthogonalEdgeStyle;html=1;" edge="1" parent="4DQSS5wWc3C-hE0lLYTg-1" source="XHWrE6tJUGV-1KRo5ZIE-16" target="XHWrE6tJUGV-1KRo5ZIE-19">
                    <mxGeometry relative="1" as="geometry"/>
                </mxCell>
                <mxCell id="XHWrE6tJUGV-1KRo5ZIE-22" value="" style="edgeStyle=orthogonalEdgeStyle;html=1;" edge="1" parent="4DQSS5wWc3C-hE0lLYTg-1" source="XHWrE6tJUGV-1KRo5ZIE-16" target="XHWrE6tJUGV-1KRo5ZIE-21">
                    <mxGeometry relative="1" as="geometry"/>
                </mxCell>
                <mxCell id="XHWrE6tJUGV-1KRo5ZIE-16" value="F17 exit" style="ellipse;whiteSpace=wrap;html=1;" vertex="1" parent="4DQSS5wWc3C-hE0lLYTg-1">
                    <mxGeometry x="380" y="820" width="120" height="80" as="geometry"/>
                </mxCell>
                <mxCell id="XHWrE6tJUGV-1KRo5ZIE-17" value="validasi input" style="whiteSpace=wrap;html=1;" vertex="1" parent="4DQSS5wWc3C-hE0lLYTg-1">
                    <mxGeometry x="380" y="970" width="120" height="60" as="geometry"/>
                </mxCell>
                <mxCell id="XHWrE6tJUGV-1KRo5ZIE-19" value="menampilkan pertanyaan" style="whiteSpace=wrap;html=1;" vertex="1" parent="4DQSS5wWc3C-hE0lLYTg-1">
                    <mxGeometry x="180" y="830" width="120" height="60" as="geometry"/>
                </mxCell>
                <mxCell id="XHWrE6tJUGV-1KRo5ZIE-21" value="eksekusi save" style="whiteSpace=wrap;html=1;" vertex="1" parent="4DQSS5wWc3C-hE0lLYTg-1">
                    <mxGeometry x="580" y="830" width="120" height="60" as="geometry"/>
                </mxCell>
            </root>
        </mxGraphModel>
    </diagram>
</mxfile>